<svg width="889" height="77" viewBox="0 0 889 77" fill="none" xmlns="http://www.w3.org/2000/svg">
<path d="M22.7188 34.1406L23.2812 7.42188C25.9062 7.23438 27.8906 7.14062 29.2344 7.14062C33.6719 7.14062 37.2031 8.14062 39.8281 10.1406C42.4531 12.1094 43.7656 15.2344 43.7656 19.5156C43.7656 29.2656 36.75 34.1406 22.7188 34.1406ZM23.1875 69.8125L22.7188 37C25.2188 36.8125 27.6562 36.7188 30.0312 36.7188C36.75 36.7188 42.0938 37.9531 46.0625 40.4219C50.0312 42.8906 52.0156 46.7812 52.0156 52.0938C52.0156 55.2188 51.4375 57.9062 50.2812 60.1562C49.125 62.375 47.6719 64.0938 45.9219 65.3125C44.2031 66.5312 41.9688 67.5 39.2188 68.2188C36.4688 68.9062 33.9062 69.3438 31.5312 69.5312C29.1875 69.7188 26.4062 69.8125 23.1875 69.8125ZM30.4062 67.7969C33.2188 67.6094 35.6875 67.2812 37.8125 66.8125C39.9688 66.3438 42.0156 65.5625 43.9531 64.4688C45.9219 63.375 47.4375 61.7969 48.5 59.7344C49.5625 57.6406 50.0938 55.0938 50.0938 52.0938C50.0938 48.875 49 46.1719 46.8125 43.9844C44.625 41.7656 42.0469 40.2656 39.0781 39.4844C36.1094 38.6719 33.0625 38.4219 29.9375 38.7344L30.4062 67.7969ZM30.4062 9.15625L30.0312 31.8906C37.9062 30.7031 41.8438 26.5781 41.8438 19.5156C41.8438 13.0469 38.0312 9.59375 30.4062 9.15625ZM3.3125 73.2812C9.40625 73.0938 16.6719 73 25.1094 73C27.9219 73 30.4531 72.9375 32.7031 72.8125C34.9531 72.6875 37.6406 72.4219 40.7656 72.0156C43.8906 71.5781 46.625 70.875 48.9688 69.9062C51.3125 68.9062 53.5625 67.6719 55.7188 66.2031C57.9062 64.7031 59.5781 62.75 60.7344 60.3438C61.8906 57.9062 62.4688 55.0781 62.4688 51.8594C62.4688 46.9531 60.5469 42.9375 56.7031 39.8125C52.8594 36.6562 48.125 34.625 42.5 33.7188V33.3438C46.1562 32.1875 49.0938 30.4688 51.3125 28.1875C53.5625 25.875 54.6875 22.9844 54.6875 19.5156C54.6875 9.23438 46.875 4.09375 31.25 4.09375C30.0312 4.09375 27.9844 4.15625 25.1094 4.28125C22.2344 4.40625 19.0469 4.46875 15.5469 4.46875C12.0781 4.46875 8.03125 4.34375 3.40625 4.09375C3.15625 4.65625 3.15625 5.39063 3.40625 6.29688C10.5938 6.98438 14.2188 8.48438 14.2812 10.7969C14.5938 18.1406 14.75 26.875 14.75 37C14.75 46.9062 14.5625 56.7656 14.1875 66.5781C14.125 68.8906 10.5 70.3906 3.3125 71.0781C3.0625 71.5781 3.0625 72.3125 3.3125 73.2812ZM2.09375 2.07812C6.625 2.26562 10.9062 2.35938 14.9375 2.35938C18.9688 2.35938 22.9062 2.32812 26.75 2.26562C30.5938 2.20313 33.2188 2.17188 34.625 2.17188C37.25 2.17188 39.625 2.26562 41.75 2.45312C43.9062 2.64062 46.2969 3.09375 48.9219 3.8125C51.5469 4.5 53.75 5.4375 55.5312 6.625C57.3438 7.8125 58.8594 9.51563 60.0781 11.7344C61.2969 13.9219 61.9062 16.5156 61.9062 19.5156C61.9062 25.0781 58.8281 29.5625 52.6719 32.9688C57.7344 34.4375 61.8281 36.7969 64.9531 40.0469C68.1094 43.2656 69.6875 47.2031 69.6875 51.8594C69.6875 54.8906 69.1719 57.6094 68.1406 60.0156C67.1094 62.3906 65.7969 64.375 64.2031 65.9688C62.6094 67.5312 60.5781 68.8906 58.1094 70.0469C55.6406 71.1719 53.2656 72.0469 50.9844 72.6719C48.7031 73.2656 46.0781 73.7344 43.1094 74.0781C40.1406 74.4531 37.5938 74.6875 35.4688 74.7812C33.375 74.875 31.0469 74.9219 28.4844 74.9219C21.0469 74.9219 12.2188 75.0469 2 75.2969C1.21875 73.1406 1.21875 71.125 2 69.25C8.78125 68.5625 12.2031 67.6406 12.2656 66.4844C12.6406 56.6719 12.8281 46.8438 12.8281 37C12.8281 26.9375 12.6719 18.2344 12.3594 10.8906C12.2969 9.73437 8.8125 8.8125 1.90625 8.125C1.375 6.125 1.4375 4.10937 2.09375 2.07812ZM84.6875 10.7969C84.625 9.64062 81.1406 8.71875 74.2344 8.03125C73.9531 7.0625 73.8125 6.125 73.8125 5.21875C73.8125 4.1875 74.0156 3.09375 74.4219 1.9375C77.1719 1.9375 80.8906 2.03125 85.5781 2.21875C90.2969 2.375 93.5781 2.45312 95.4219 2.45312C96.7656 2.45312 99.3594 2.42187 103.203 2.35938C107.047 2.29688 110.375 2.26562 113.188 2.26562C113.5 3.20312 113.656 4.15625 113.656 5.125C113.656 6.03125 113.531 7 113.281 8.03125C106.375 8.71875 102.891 9.64062 102.828 10.7969C102.703 12.9844 102.641 24.4062 102.641 45.0625C102.641 52.9375 103.875 58.75 106.344 62.5C108.812 66.25 112.922 68.2812 118.672 68.5938C124.734 68.2188 129.406 66.0156 132.688 61.9844C136 57.9219 137.656 52.2812 137.656 45.0625C137.656 30.2188 137.562 19.0469 137.375 11.5469C137.312 10.0156 133.953 8.76563 127.297 7.79688C127.047 7.04688 126.922 6.28125 126.922 5.5C126.922 4.5625 127.141 3.45312 127.578 2.17188C136.422 2.42187 141.703 2.54688 143.422 2.54688C146.766 2.54688 151.031 2.45312 156.219 2.26562C156.656 3.60938 156.875 4.59375 156.875 5.21875C156.875 6.1875 156.656 7.15625 156.219 8.125C149.75 8.75 146.484 9.89063 146.422 11.5469C146.109 17.5781 145.953 28.75 145.953 45.0625C145.953 49.9375 145.312 54.2812 144.031 58.0938C142.75 61.875 141.109 64.9219 139.109 67.2344C137.141 69.5469 134.844 71.4531 132.219 72.9531C129.594 74.4531 127.062 75.4688 124.625 76C122.188 76.5625 119.719 76.8438 117.219 76.8438C112.219 76.8438 107.891 76.3906 104.234 75.4844C100.609 74.6094 97.2812 73.0469 94.25 70.7969C91.25 68.5469 88.9844 65.2812 87.4531 61C85.9219 56.7188 85.1562 51.4062 85.1562 45.0625C85.1562 29.7812 85 18.3594 84.6875 10.7969ZM95.6094 10.7031C95.6719 8.32812 100.891 6.82812 111.266 6.20312C111.453 5.60937 111.453 4.85937 111.266 3.95312C103.078 4.23438 96.6875 4.375 92.0938 4.375C88.25 4.375 82.7969 4.23438 75.7344 3.95312C75.4844 4.54688 75.4844 5.29688 75.7344 6.20312C77.1406 6.32813 78.2969 6.45312 79.2031 6.57812C80.1094 6.70313 81.2188 6.92187 82.5312 7.23438C83.8438 7.54688 84.8438 8.01563 85.5312 8.64062C86.25 9.23438 86.6094 9.95312 86.6094 10.7969C86.9219 20.7031 87.0781 32.125 87.0781 45.0625C87.0781 51 87.7969 56 89.2344 60.0625C90.6719 64.0938 92.8125 67.1719 95.6562 69.2969C98.5312 71.3906 101.656 72.8438 105.031 73.6562C108.438 74.5 112.5 74.9219 117.219 74.9219C119.531 74.9219 121.828 74.6562 124.109 74.125C126.422 73.625 128.797 72.6719 131.234 71.2656C133.672 69.8594 135.812 68.0781 137.656 65.9219C139.531 63.7344 141.062 60.8438 142.25 57.25C143.438 53.6562 144.031 49.5938 144.031 45.0625C144.031 30.0938 144.188 18.8906 144.5 11.4531C144.625 8.70312 148.078 7.01562 154.859 6.39062C155.109 5.85938 155.109 5.125 154.859 4.1875C148.984 4.375 144.797 4.46875 142.297 4.46875C138.391 4.46875 133.938 4.375 128.938 4.1875C128.688 4.6875 128.688 5.42187 128.938 6.39062C135.781 7.01562 139.234 8.70312 139.297 11.4531C139.484 18.9531 139.578 30.1562 139.578 45.0625C139.578 53.25 137.625 59.5469 133.719 63.9531C129.844 68.3281 124.281 70.5156 117.031 70.5156C109.156 70.5156 103.578 68.5 100.297 64.4688C97.0469 60.4375 95.4219 53.9688 95.4219 45.0625C95.4219 26.375 95.4844 14.9219 95.6094 10.7031ZM185.469 66.5781C185.219 53.5156 185.094 43.6562 185.094 37C185.094 29.3125 185.25 20.5781 185.562 10.7969C185.625 8.42187 190.844 6.92187 201.219 6.29688C201.406 5.70312 201.406 4.96875 201.219 4.09375C193.031 4.34375 186.641 4.46875 182.047 4.46875C178.203 4.46875 172.75 4.34375 165.688 4.09375C165.438 4.65625 165.438 5.39063 165.688 6.29688C172.875 6.98438 176.5 8.48438 176.562 10.7969C176.875 18.1406 177.031 26.875 177.031 37C177.031 46.9062 176.844 56.7656 176.469 66.5781C176.406 68.8906 172.781 70.3906 165.594 71.0781C165.344 71.5781 165.344 72.3125 165.594 73.2812C170.906 73.0938 176.359 73 181.953 73C188.609 73 195 73.0938 201.125 73.2812C201.375 72.7812 201.375 72.0469 201.125 71.0781C190.75 70.4531 185.531 68.9531 185.469 66.5781ZM164.188 8.125C163.656 6.0625 163.719 4.04688 164.375 2.07812C167.125 2.07812 170.844 2.15625 175.531 2.3125C180.25 2.46875 183.531 2.54688 185.375 2.54688C186.719 2.54688 189.312 2.51562 193.156 2.45312C197 2.39063 200.328 2.35938 203.141 2.35938C203.734 4.14062 203.766 6.0625 203.234 8.125C196.328 8.8125 192.844 9.73437 192.781 10.8906C192.406 18.7031 192.219 28.5625 192.219 40.4688C192.219 51.9688 192.375 60.6406 192.688 66.4844C192.688 66.6719 192.766 66.8594 192.922 67.0469C193.078 67.2344 193.297 67.3906 193.578 67.5156C193.891 67.6406 194.203 67.7812 194.516 67.9375C194.828 68.0625 195.25 68.1875 195.781 68.3125C196.344 68.4375 196.812 68.5469 197.188 68.6406C197.562 68.7344 198.062 68.8281 198.688 68.9219C199.344 69.0156 199.859 69.0938 200.234 69.1562C200.641 69.2188 201.172 69.2812 201.828 69.3438C202.516 69.4062 202.984 69.4688 203.234 69.5312C203.766 71.2812 203.672 73.2031 202.953 75.2969C191.422 75.0469 184.422 74.9219 181.953 74.9219C180.266 74.9219 174.375 75.0469 164.281 75.2969C163.5 73.1406 163.5 71.125 164.281 69.25C171.062 68.5625 174.484 67.6406 174.547 66.4844C174.922 58.6719 175.109 48.8438 175.109 37C175.109 26.9375 174.953 18.2344 174.641 10.8906C174.578 9.73437 171.094 8.8125 164.188 8.125ZM229.719 37C229.719 29.3125 229.875 20.5781 230.188 10.7969C230.25 8.42187 235.469 6.92187 245.844 6.29688C246.031 5.70312 246.031 4.96875 245.844 4.09375C237.656 4.34375 231.266 4.46875 226.672 4.46875C222.828 4.46875 217.375 4.34375 210.312 4.09375C210.062 4.65625 210.062 5.39063 210.312 6.29688C217.5 6.98438 221.125 8.48438 221.188 10.7969C221.5 18.1406 221.656 26.875 221.656 37C221.656 46.9062 221.469 56.7656 221.094 66.5781C221.031 68.8906 217.406 70.3906 210.219 71.0781C210.031 71.8594 210.031 72.5938 210.219 73.2812C216.25 73.0938 230.266 73 252.266 73C259.766 73 265.391 71.5938 269.141 68.7812C272.891 65.9688 276.391 61.2344 279.641 54.5781C279.391 54.0469 278.844 53.625 278 53.3125C276.781 55.5625 275.438 57.5625 273.969 59.3125C272.5 61.0625 270.562 62.8281 268.156 64.6094C265.75 66.3594 262.75 67.7188 259.156 68.6875C255.594 69.6562 251.547 70.1406 247.016 70.1406H230.094C229.844 59.1719 229.719 48.125 229.719 37ZM236.844 40.4688C236.844 49.0312 236.969 58.2812 237.219 68.2188H246.922C260.797 68.2188 270.875 62.4531 277.156 50.9219C279.781 51.8906 281.438 53.1094 282.125 54.5781C277.656 61.9844 275.031 68.7656 274.25 74.9219H236.422C224.078 74.9219 214.906 75.0156 208.906 75.2031C208.25 73.1719 208.219 71.1875 208.812 69.25C215.656 68.5625 219.109 67.6406 219.172 66.4844C219.547 56.6719 219.734 46.8438 219.734 37C219.734 26.9375 219.578 18.2344 219.266 10.8906C219.203 9.73437 215.719 8.8125 208.812 8.125C208.281 6.0625 208.344 4.04688 209 2.07812C214.438 2.39063 221.438 2.54688 230 2.54688C231.281 2.54688 233.844 2.51562 237.688 2.45312C241.531 2.39063 244.891 2.35938 247.766 2.35938C248.359 4.14062 248.391 6.0625 247.859 8.125C240.953 8.8125 237.469 9.73437 237.406 10.8906C237.031 18.7031 236.844 28.5625 236.844 40.4688ZM310.25 8.03125C313.656 7.625 317.25 7.42188 321.031 7.42188C325.188 7.42188 328.906 8.07812 332.188 9.39062C335.5 10.7031 338.172 12.3906 340.203 14.4531C342.266 16.4844 343.953 18.8906 345.266 21.6719C346.578 24.4531 347.484 27.2188 347.984 29.9688C348.516 32.6875 348.781 35.4844 348.781 38.3594C348.781 47.8281 346.125 55.4062 340.812 61.0938C335.5 66.7812 327.844 69.625 317.844 69.625L310.156 69.5312C309.844 56.5625 309.688 46.875 309.688 40.4688C309.688 28.875 309.875 18.0625 310.25 8.03125ZM320.328 74.9219C309.859 74.9219 299.406 75.0469 288.969 75.2969C288.188 73.1406 288.188 71.125 288.969 69.25C295.75 68.5625 299.172 67.6406 299.234 66.4844C299.609 56.6719 299.797 46.8438 299.797 37C299.797 26.9375 299.641 18.2344 299.328 10.8906C299.266 9.73437 295.781 8.8125 288.875 8.125C288.344 6.125 288.406 4.10937 289.062 2.07812C292.906 2.14062 304.875 2.17188 324.969 2.17188C329.312 2.17188 333.297 2.4375 336.922 2.96875C340.578 3.5 344.297 4.57812 348.078 6.20312C351.859 7.79688 355.047 9.89063 357.641 12.4844C360.234 15.0781 362.344 18.5781 363.969 22.9844C365.594 27.3906 366.406 32.5469 366.406 38.4531C366.406 44.0781 365.453 49.0625 363.547 53.4062C361.641 57.75 359.141 61.25 356.047 63.9062C352.984 66.5625 349.375 68.75 345.219 70.4688C341.062 72.1562 336.969 73.3125 332.938 73.9375C328.906 74.5938 324.703 74.9219 320.328 74.9219ZM317.469 9.71875C317.094 20.6875 316.906 30.9375 316.906 40.4688C316.906 48.2188 317.031 57.2969 317.281 67.7031C327.125 67.4531 334.516 64.6875 339.453 59.4062C344.391 54.125 346.859 47.1094 346.859 38.3594C346.859 34.9531 346.453 31.7031 345.641 28.6094C344.828 25.4844 343.531 22.4531 341.75 19.5156C339.969 16.5781 337.359 14.2031 333.922 12.3906C330.516 10.5469 326.5 9.5625 321.875 9.4375C320.344 9.4375 318.875 9.53125 317.469 9.71875ZM290.281 73.2812C297 73.0938 305.906 73 317 73C320.969 73 324.797 72.7031 328.484 72.1094C332.203 71.4844 335.969 70.3594 339.781 68.7344C343.594 67.1094 346.891 65.0469 349.672 62.5469C352.453 60.0469 354.734 56.7188 356.516 52.5625C358.328 48.4062 359.234 43.6719 359.234 38.3594C359.234 15.5156 346.688 4.09375 321.594 4.09375C319.281 4.09375 316 4.14062 311.75 4.23438C307.5 4.32812 303.641 4.375 300.172 4.375C296.734 4.375 293.469 4.28125 290.375 4.09375C290.125 4.65625 290.125 5.39063 290.375 6.29688C297.562 6.98438 301.188 8.48438 301.25 10.7969C301.562 18.1406 301.719 26.875 301.719 37C301.719 46.9062 301.531 56.7656 301.156 66.5781C301.094 68.8906 297.469 70.3906 290.281 71.0781C289.969 71.7969 289.969 72.5312 290.281 73.2812ZM427.344 8.125C425.75 8.1875 424.812 8.5625 424.531 9.25C424.25 9.90625 424.453 11.0937 425.141 12.8125L439.578 48.3438L445.297 32.9688L437.234 12.7188C436.547 11.0625 435.703 9.92187 434.703 9.29688C433.703 8.64062 432.125 8.25 429.969 8.125C429.188 6.125 429.188 4.26563 429.969 2.54688H463.062C463.844 4.26563 463.844 6.125 463.062 8.125C459.688 8.25 457.484 8.71875 456.453 9.53125C455.422 10.3125 455.172 11.4062 455.703 12.8125L469.109 48.0625L482.281 12.8125C482.906 11.0937 482.688 9.95312 481.625 9.39062C480.594 8.79687 478.5 8.375 475.344 8.125C474.594 6.125 474.594 4.26563 475.344 2.54688H503.188C503.969 4.26563 503.969 6.125 503.188 8.125C498.469 8.4375 495.438 8.90625 494.094 9.53125C492.688 10.25 491.688 11.3438 491.094 12.8125L467.094 76.2812H462.312L449.75 43.8906L437.516 76.2812H432.828L406.625 12.8125C406 11.2812 404.891 10.2031 403.297 9.57812C401.734 8.92188 399.391 8.4375 396.266 8.125C395.484 6.125 395.484 4.26563 396.266 2.54688H427.344C428.125 4.26563 428.125 6.125 427.344 8.125ZM425.75 4.09375H397.906C397.5 4.71875 397.5 5.45312 397.906 6.29688C403.531 6.85938 407.016 8.78125 408.359 12.0625L434.094 74.3594H436.203L449.516 38.6406L463.672 74.3594H465.781L489.594 11.4531C490.281 9.67188 491.531 8.4375 493.344 7.75C495.188 7.03125 497.797 6.54687 501.172 6.29688C501.578 5.45312 501.578 4.71875 501.172 4.09375H477.359C476.984 4.71875 476.984 5.45312 477.359 6.29688C481.078 6.73437 483.359 7.3125 484.203 8.03125C485.234 8.84375 485.453 9.98438 484.859 11.4531L466.625 60.5312L448.109 12.0625C447.391 10.375 448.125 9.0625 450.312 8.125C452.5 7.15625 456.078 6.54687 461.047 6.29688C461.453 5.45312 461.453 4.71875 461.047 4.09375H431.609C431.203 4.71875 431.203 5.45312 431.609 6.29688C433.578 6.48438 435.125 7 436.25 7.84375C437.375 8.65625 438.312 10.0625 439.062 12.0625L447.312 32.9688L437.047 60.5312L417.359 12.0625C416.297 9.9375 416.406 8.53125 417.688 7.84375C418.969 7.125 421.656 6.60938 425.75 6.29688C426.125 5.45312 426.125 4.71875 425.75 4.09375ZM526.344 66.5781C526.094 53.5156 525.969 43.6562 525.969 37C525.969 29.3125 526.125 20.5781 526.438 10.7969C526.5 8.42187 531.719 6.92187 542.094 6.29688C542.281 5.70312 542.281 4.96875 542.094 4.09375C533.906 4.34375 527.516 4.46875 522.922 4.46875C519.078 4.46875 513.625 4.34375 506.562 4.09375C506.312 4.65625 506.312 5.39063 506.562 6.29688C513.75 6.98438 517.375 8.48438 517.438 10.7969C517.75 18.1406 517.906 26.875 517.906 37C517.906 46.9062 517.719 56.7656 517.344 66.5781C517.281 68.8906 513.656 70.3906 506.469 71.0781C506.219 71.5781 506.219 72.3125 506.469 73.2812C511.781 73.0938 517.234 73 522.828 73C529.484 73 535.875 73.0938 542 73.2812C542.25 72.7812 542.25 72.0469 542 71.0781C531.625 70.4531 526.406 68.9531 526.344 66.5781ZM505.062 8.125C504.531 6.0625 504.594 4.04688 505.25 2.07812C508 2.07812 511.719 2.15625 516.406 2.3125C521.125 2.46875 524.406 2.54688 526.25 2.54688C527.594 2.54688 530.188 2.51562 534.031 2.45312C537.875 2.39063 541.203 2.35938 544.016 2.35938C544.609 4.14062 544.641 6.0625 544.109 8.125C537.203 8.8125 533.719 9.73437 533.656 10.8906C533.281 18.7031 533.094 28.5625 533.094 40.4688C533.094 51.9688 533.25 60.6406 533.562 66.4844C533.562 66.6719 533.641 66.8594 533.797 67.0469C533.953 67.2344 534.172 67.3906 534.453 67.5156C534.766 67.6406 535.078 67.7812 535.391 67.9375C535.703 68.0625 536.125 68.1875 536.656 68.3125C537.219 68.4375 537.688 68.5469 538.062 68.6406C538.438 68.7344 538.938 68.8281 539.562 68.9219C540.219 69.0156 540.734 69.0938 541.109 69.1562C541.516 69.2188 542.047 69.2812 542.703 69.3438C543.391 69.4062 543.859 69.4688 544.109 69.5312C544.641 71.2812 544.547 73.2031 543.828 75.2969C532.297 75.0469 525.297 74.9219 522.828 74.9219C521.141 74.9219 515.25 75.0469 505.156 75.2969C504.375 73.1406 504.375 71.125 505.156 69.25C511.938 68.5625 515.359 67.6406 515.422 66.4844C515.797 58.6719 515.984 48.8438 515.984 37C515.984 26.9375 515.828 18.2344 515.516 10.8906C515.453 9.73437 511.969 8.8125 505.062 8.125ZM550.344 25.5625C547.969 24.625 546.406 23.4062 545.656 21.9062C547.438 18.5312 548.625 16.2656 549.219 15.1094C549.844 13.9531 550.547 12.1875 551.328 9.8125C552.141 7.40625 552.703 4.98438 553.016 2.54688H585.5H624.547C625.328 8.67188 627.766 15.125 631.859 21.9062C631.141 23.4062 629.469 24.625 626.844 25.5625C624.281 20.9063 620.5 17.0312 615.5 13.9375C610.531 10.8125 604.078 9.25 596.141 9.25C595.891 17 595.766 26.1875 595.766 36.8125C595.766 50.375 595.922 60.2656 596.234 66.4844C596.297 67.6406 599.781 68.5625 606.688 69.25C607.219 71.25 607.156 73.2656 606.5 75.2969C596.375 75.0469 590.484 74.9219 588.828 74.9219C586.328 74.9219 579.328 75.0469 567.828 75.2969C567.047 73.1406 567.047 71.125 567.828 69.25C574.609 68.5625 578.031 67.6719 578.094 66.5781C578.406 58.7031 578.562 48.7812 578.562 36.8125C578.562 26.8125 578.438 17.7188 578.188 9.53125C565.188 11.2188 555.906 16.5625 550.344 25.5625ZM563.609 7.60938L580.016 7.14062C580.328 17.5156 580.484 27.4062 580.484 36.8125C580.484 48.9062 580.328 58.8281 580.016 66.5781C579.953 68.8906 576.328 70.3906 569.141 71.0781C568.891 71.5781 568.891 72.3125 569.141 73.2812C574.453 73.0938 579.906 73 585.5 73C592.156 73 598.547 73.0938 604.672 73.2812C604.922 72.7188 604.922 71.9844 604.672 71.0781C594.297 70.4531 589.078 68.9531 589.016 66.5781C588.703 56.2031 588.547 46.2812 588.547 36.8125C588.547 24.7812 588.703 14.8906 589.016 7.14062L596.234 7.32812C611.797 7.70312 622.297 12.9844 627.734 23.1719C628.547 22.8594 629.078 22.4375 629.328 21.9062C626.203 15.5312 622.703 11.0312 618.828 8.40625C614.953 5.78125 609.188 4.46875 601.531 4.46875H585.5C582.094 4.46875 576.953 4.45313 570.078 4.42188C563.203 4.39062 558.094 4.375 554.75 4.375C554.625 5.4375 554.406 6.54687 554.094 7.70312C553.781 8.85938 553.484 9.84375 553.203 10.6562C552.953 11.4375 552.516 12.4844 551.891 13.7969C551.297 15.1094 550.891 16 550.672 16.4688C550.453 16.9062 549.953 17.875 549.172 19.375C548.422 20.875 547.984 21.7188 547.859 21.9062C548.109 22.4375 548.656 22.8594 549.5 23.1719C551.719 19.5156 553.438 16.8125 554.656 15.0625C555.875 13.3125 557.312 11.6406 558.969 10.0469C560.656 8.42187 562.203 7.60938 563.609 7.60938ZM686.328 66.5781C686.328 68.8906 682.719 70.3906 675.5 71.0781C675.25 71.5781 675.25 72.3125 675.5 73.2812C680.812 73.0938 686.25 73 691.812 73C698.469 73 704.875 73.0938 711.031 73.2812C711.281 72.7188 711.281 71.9844 711.031 71.0781C700.656 70.4531 695.438 68.9531 695.375 66.5781C695.031 58.8281 694.859 49.5469 694.859 38.7344C694.859 27.8594 695.031 18.5469 695.375 10.7969C695.438 8.42187 700.656 6.92187 711.031 6.29688C711.344 5.51562 711.344 4.78125 711.031 4.09375C702.812 4.34375 696.406 4.46875 691.812 4.46875C687.969 4.46875 682.531 4.34375 675.5 4.09375C675.312 4.84375 675.312 5.57813 675.5 6.29688C682.656 6.98438 686.266 8.48438 686.328 10.7969C686.516 16.5469 686.672 25.2188 686.797 36.8125C681.047 37 675.609 37.0938 670.484 37.0938C661.922 37.0938 655.719 37.0312 651.875 36.9062C651.875 26.4062 652.062 17.7031 652.438 10.7969C652.5 8.42187 657.719 6.92187 668.094 6.29688C668.281 5.70312 668.281 4.96875 668.094 4.09375C659.906 4.34375 653.5 4.46875 648.875 4.46875C645.062 4.46875 639.625 4.34375 632.562 4.09375C632.312 4.65625 632.312 5.39063 632.562 6.29688C639.75 6.98438 643.375 8.48438 643.438 10.7969C643.75 18.1406 643.906 26.875 643.906 37C643.906 46.9062 643.719 56.7656 643.344 66.5781C643.281 68.8906 639.656 70.3906 632.469 71.0781C632.219 71.5781 632.219 72.3125 632.469 73.2812C637.781 73.0938 643.219 73 648.781 73C655.438 73 661.844 73.0938 668 73.2812C668.25 72.7812 668.25 72.0469 668 71.0781C657.625 70.4531 652.406 68.9531 652.344 66.5781C652.031 57.1719 651.875 48.375 651.875 40.1875C659.562 40.0312 665.766 39.9531 670.484 39.9531C675.609 39.9531 681.047 40.0625 686.797 40.2812C686.734 47.25 686.578 56.0156 686.328 66.5781ZM684.406 66.5781C684.656 54.1406 684.812 46.2969 684.875 43.0469C678.75 42.9219 673.953 42.8594 670.484 42.8594C667.797 42.8594 665.281 42.875 662.938 42.9062C660.625 42.9375 659.344 42.9531 659.094 42.9531C659.094 50.1719 659.25 58.0156 659.562 66.4844C659.562 66.6719 659.625 66.8594 659.75 67.0469C659.875 67.2344 660.094 67.3906 660.406 67.5156C660.719 67.6406 661.031 67.7812 661.344 67.9375C661.688 68.0625 662.109 68.1875 662.609 68.3125C663.141 68.4375 663.609 68.5469 664.016 68.6406C664.422 68.7344 664.938 68.8281 665.562 68.9219C666.219 69.0156 666.734 69.0938 667.109 69.1562C667.516 69.2188 668.047 69.2812 668.703 69.3438C669.391 69.4062 669.859 69.4688 670.109 69.5312C670.609 71.2812 670.516 73.2031 669.828 75.2969C658.297 75.0469 651.281 74.9219 648.781 74.9219C647.125 74.9219 641.25 75.0469 631.156 75.2969C630.375 73.1406 630.375 71.125 631.156 69.25C637.938 68.5625 641.359 67.6406 641.422 66.4844C641.797 56.6719 641.984 46.8438 641.984 37C641.984 26.9375 641.828 18.2344 641.516 10.8906C641.453 9.73437 637.969 8.8125 631.062 8.125C630.531 6.125 630.594 4.10937 631.25 2.07812C634 2.07812 637.719 2.15625 642.406 2.3125C647.125 2.46875 650.406 2.54688 652.25 2.54688C653.594 2.54688 656.188 2.51562 660.031 2.45312C663.875 2.39063 667.203 2.35938 670.016 2.35938C670.578 4.14062 670.609 6.0625 670.109 8.125C663.203 8.8125 659.719 9.73437 659.656 10.8906C659.281 19.5156 659.094 27.5781 659.094 35.0781C662.094 35.2656 665.891 35.2969 670.484 35.1719L684.875 34.9844C684.75 24.7969 684.594 16.7656 684.406 10.8906C684.344 9.73437 680.859 8.8125 673.953 8.125C673.391 5.9375 673.453 3.92187 674.141 2.07812C678.672 2.39063 684.812 2.54688 692.562 2.54688C694.031 2.54688 697.016 2.51562 701.516 2.45312C706.047 2.39063 709.844 2.35938 712.906 2.35938C713.5 4.14062 713.547 6.0625 713.047 8.125C706.109 8.8125 702.609 9.73437 702.547 10.8906C702.234 18.6406 702.078 27.9219 702.078 38.7344C702.078 49.4844 702.234 58.7344 702.547 66.4844C702.609 67.6406 706.109 68.5625 713.047 69.25C713.547 71.25 713.469 73.2656 712.812 75.2969C702.719 75.0469 696.844 74.9219 695.188 74.9219C692.688 74.9219 685.672 75.0469 674.141 75.2969C673.391 73.1406 673.391 71.125 674.141 69.25C680.984 68.5625 684.406 67.6719 684.406 66.5781ZM752.281 10.7969C752.219 9.64062 748.734 8.71875 741.828 8.03125C741.547 7.0625 741.406 6.125 741.406 5.21875C741.406 4.1875 741.609 3.09375 742.016 1.9375C744.766 1.9375 748.484 2.03125 753.172 2.21875C757.891 2.375 761.172 2.45312 763.016 2.45312C764.359 2.45312 766.953 2.42187 770.797 2.35938C774.641 2.29688 777.969 2.26562 780.781 2.26562C781.094 3.20312 781.25 4.15625 781.25 5.125C781.25 6.03125 781.125 7 780.875 8.03125C773.969 8.71875 770.484 9.64062 770.422 10.7969C770.297 12.9844 770.234 24.4062 770.234 45.0625C770.234 52.9375 771.469 58.75 773.938 62.5C776.406 66.25 780.516 68.2812 786.266 68.5938C792.328 68.2188 797 66.0156 800.281 61.9844C803.594 57.9219 805.25 52.2812 805.25 45.0625C805.25 30.2188 805.156 19.0469 804.969 11.5469C804.906 10.0156 801.547 8.76563 794.891 7.79688C794.641 7.04688 794.516 6.28125 794.516 5.5C794.516 4.5625 794.734 3.45312 795.172 2.17188C804.016 2.42187 809.297 2.54688 811.016 2.54688C814.359 2.54688 818.625 2.45312 823.812 2.26562C824.25 3.60938 824.469 4.59375 824.469 5.21875C824.469 6.1875 824.25 7.15625 823.812 8.125C817.344 8.75 814.078 9.89063 814.016 11.5469C813.703 17.5781 813.547 28.75 813.547 45.0625C813.547 49.9375 812.906 54.2812 811.625 58.0938C810.344 61.875 808.703 64.9219 806.703 67.2344C804.734 69.5469 802.438 71.4531 799.812 72.9531C797.188 74.4531 794.656 75.4688 792.219 76C789.781 76.5625 787.312 76.8438 784.812 76.8438C779.812 76.8438 775.484 76.3906 771.828 75.4844C768.203 74.6094 764.875 73.0469 761.844 70.7969C758.844 68.5469 756.578 65.2812 755.047 61C753.516 56.7188 752.75 51.4062 752.75 45.0625C752.75 29.7812 752.594 18.3594 752.281 10.7969ZM763.203 10.7031C763.266 8.32812 768.484 6.82812 778.859 6.20312C779.047 5.60937 779.047 4.85937 778.859 3.95312C770.672 4.23438 764.281 4.375 759.688 4.375C755.844 4.375 750.391 4.23438 743.328 3.95312C743.078 4.54688 743.078 5.29688 743.328 6.20312C744.734 6.32813 745.891 6.45312 746.797 6.57812C747.703 6.70313 748.812 6.92187 750.125 7.23438C751.438 7.54688 752.438 8.01563 753.125 8.64062C753.844 9.23438 754.203 9.95312 754.203 10.7969C754.516 20.7031 754.672 32.125 754.672 45.0625C754.672 51 755.391 56 756.828 60.0625C758.266 64.0938 760.406 67.1719 763.25 69.2969C766.125 71.3906 769.25 72.8438 772.625 73.6562C776.031 74.5 780.094 74.9219 784.812 74.9219C787.125 74.9219 789.422 74.6562 791.703 74.125C794.016 73.625 796.391 72.6719 798.828 71.2656C801.266 69.8594 803.406 68.0781 805.25 65.9219C807.125 63.7344 808.656 60.8438 809.844 57.25C811.031 53.6562 811.625 49.5938 811.625 45.0625C811.625 30.0938 811.781 18.8906 812.094 11.4531C812.219 8.70312 815.672 7.01562 822.453 6.39062C822.703 5.85938 822.703 5.125 822.453 4.1875C816.578 4.375 812.391 4.46875 809.891 4.46875C805.984 4.46875 801.531 4.375 796.531 4.1875C796.281 4.6875 796.281 5.42187 796.531 6.39062C803.375 7.01562 806.828 8.70312 806.891 11.4531C807.078 18.9531 807.172 30.1562 807.172 45.0625C807.172 53.25 805.219 59.5469 801.312 63.9531C797.438 68.3281 791.875 70.5156 784.625 70.5156C776.75 70.5156 771.172 68.5 767.891 64.4688C764.641 60.4375 763.016 53.9688 763.016 45.0625C763.016 26.375 763.078 14.9219 763.203 10.7031ZM860.094 0.625C864.562 0.625 868.672 1.25 872.422 2.5C876.172 3.75 879.547 4.5625 882.547 4.9375C880.891 10.75 880.828 17.0156 882.359 23.7344C880.766 25.0781 878.938 25.8594 876.875 26.0781C876.625 25.4844 876.172 24.25 875.516 22.375C874.891 20.4687 874.281 18.9062 873.688 17.6875C873.125 16.4688 872.328 15.0781 871.297 13.5156C870.297 11.9531 868.953 10.7187 867.266 9.8125C865.609 8.875 863.703 8.23437 861.547 7.89062C858.391 8.17188 855.953 9.14063 854.234 10.7969C852.516 12.4531 851.656 14.5938 851.656 17.2188C851.656 19.9062 852.344 22.125 853.719 23.875C855.094 25.5938 856.875 26.8906 859.062 27.7656C861.281 28.6094 863.719 29.3594 866.375 30.0156C869.031 30.6406 871.672 31.4219 874.297 32.3594C876.922 33.2656 879.328 34.4688 881.516 35.9688C883.734 37.4375 885.531 39.6406 886.906 42.5781C888.281 45.5156 888.969 49.0938 888.969 53.3125C888.969 58.4375 887.484 62.8438 884.516 66.5312C881.547 70.2188 878.047 72.8594 874.016 74.4531C869.984 76.0469 865.859 76.8438 861.641 76.8438C852.359 76.8438 843.172 74.7969 834.078 70.7031C834.266 66.6719 834.359 64.2031 834.359 63.2969C834.359 58.2344 833.875 52.7969 832.906 46.9844C835.719 45.6406 838.859 45.5781 842.328 46.7969C843.484 53.8906 845.719 59.3281 849.031 63.1094C852.375 66.8906 856.031 69 860 69.4375C863.719 69.1875 866.578 67.9844 868.578 65.8281C870.609 63.6406 871.625 60.875 871.625 57.5312C871.625 54.7188 870.969 52.3438 869.656 50.4062C868.344 48.4375 866.609 46.9219 864.453 45.8594C862.297 44.7656 859.953 43.7812 857.422 42.9062C854.922 42.0312 852.391 41.1094 849.828 40.1406C847.266 39.1406 844.906 37.9531 842.75 36.5781C840.625 35.2031 838.906 33.2812 837.594 30.8125C836.281 28.3438 835.625 25.3438 835.625 21.8125C835.625 18.625 836.125 15.7656 837.125 13.2344C838.156 10.7031 839.484 8.67188 841.109 7.14062C842.766 5.60937 844.688 4.32812 846.875 3.29688C849.094 2.26562 851.281 1.5625 853.438 1.1875C855.625 0.8125 857.844 0.625 860.094 0.625ZM860.094 2.54688C857.469 2.54688 854.922 2.85938 852.453 3.48438C849.984 4.07813 847.578 5.0625 845.234 6.4375C842.922 7.8125 841.062 9.82812 839.656 12.4844C838.25 15.1406 837.547 18.25 837.547 21.8125C837.547 24.9688 838.203 27.6875 839.516 29.9688C840.828 32.2188 842.547 33.9688 844.672 35.2188C846.828 36.4688 849.188 37.5781 851.75 38.5469C854.312 39.4844 856.844 40.4375 859.344 41.4062C861.875 42.375 864.219 43.4688 866.375 44.6875C868.531 45.9062 870.266 47.6094 871.578 49.7969C872.891 51.9531 873.547 54.5312 873.547 57.5312C873.547 61.6875 872.219 65.0469 869.562 67.6094C866.906 70.1719 863.141 71.4531 858.266 71.4531C853.578 71.4531 849.219 69.5 845.188 65.5938C841.156 61.6875 838.5 55.8438 837.219 48.0625C836.594 47.6562 835.859 47.6562 835.016 48.0625C835.859 52.9688 836.281 58.0469 836.281 63.2969C836.281 64.7656 836.219 66.8438 836.094 69.5312C843.844 73.125 851.234 74.9219 858.266 74.9219C864.078 74.9219 869.453 73.2031 874.391 69.7656C879.328 66.2969 881.797 61.4531 881.797 55.2344C881.797 51.7031 881.109 48.7188 879.734 46.2812C878.359 43.8125 876.562 41.8906 874.344 40.5156C872.125 39.1406 869.688 37.9531 867.031 36.9531C864.375 35.9531 861.734 35.0156 859.109 34.1406C856.484 33.2344 854.062 32.2344 851.844 31.1406C849.656 30.0469 847.875 28.5 846.5 26.5C845.125 24.4688 844.438 22.0156 844.438 19.1406C844.438 15.1094 845.797 11.8906 848.516 9.48438C851.234 7.07813 855.094 5.875 860.094 5.875C868.781 5.875 874.766 11.8906 878.047 23.9219C879.016 24.0781 879.688 23.8594 880.062 23.2656C879.031 15.6406 876.766 10.2812 873.266 7.1875C869.797 4.09375 865.406 2.54688 860.094 2.54688Z" fill="white"/>
</svg>
