<svg width="371" height="100" viewBox="0 0 371 100" fill="none" xmlns="http://www.w3.org/2000/svg">
<path d="M42.8594 4.46875H19.2812C15.375 4.46875 9.89062 4.34375 2.82812 4.09375V6.29688C10.0156 6.98438 13.6406 8.48438 13.7031 10.7969C14.0156 18.1406 14.1719 26.875 14.1719 37C14.1719 46.9062 13.9844 56.7656 13.6094 66.5781C13.5469 68.8906 9.92188 70.3906 2.73438 71.0781C2.60938 72.1719 2.60938 72.9062 2.73438 73.2812C8.76562 73.0938 22.7812 73 44.7812 73C52.4688 73 58.25 71.6875 62.125 69.0625C66 66.4375 69.5 61.9219 72.625 55.5156C72.375 55.0156 71.8281 54.6094 70.9844 54.2969C65.2969 64.8594 54.8125 70.1406 39.5312 70.1406H22.6094C22.2969 56.4844 22.1406 46.5 22.1406 40.1875L37.4219 40.0938C38.7656 40.0938 40.0156 40.3125 41.1719 40.75C42.3594 41.1875 43.2969 41.6406 43.9844 42.1094C44.7031 42.5469 45.5312 43.4062 46.4688 44.6875C47.4062 45.9688 48.0625 46.9062 48.4375 47.5C48.8125 48.0625 49.4688 49.25 50.4062 51.0625C51.3438 52.875 51.9688 54.0469 52.2812 54.5781C53.25 54.1719 53.8594 53.75 54.1094 53.3125C50.9844 48 49.4219 43.1094 49.4219 38.6406C49.4219 36.7031 49.8594 34.3438 50.7344 31.5625C51.6406 28.7812 52.7656 26.2344 54.1094 23.9219C53.8594 23.4844 53.25 23.0781 52.2812 22.7031C52.0312 23.1406 51.5312 24.0781 50.7812 25.5156C50.0625 26.9531 49.5781 27.8906 49.3281 28.3281C49.1094 28.7344 48.6562 29.5 47.9688 30.625C47.3125 31.75 46.7969 32.5 46.4219 32.875C46.0469 33.25 45.4844 33.8125 44.7344 34.5625C44.0156 35.2812 43.3125 35.7812 42.625 36.0625C41.9688 36.3125 41.1875 36.5469 40.2812 36.7656C39.375 36.9844 38.4219 37.0938 37.4219 37.0938C30.7031 37.0938 25.6094 37.0312 22.1406 36.9062C22.1406 29.3438 22.3281 19.4844 22.7031 7.32812H37.6094C52.8906 7.32812 63.375 12.6094 69.0625 23.1719C69.9062 22.8594 70.4531 22.4375 70.7031 21.9062C67.5781 15.5312 64.0781 11.0312 60.2031 8.40625C56.3281 5.78125 50.5469 4.46875 42.8594 4.46875ZM49.3281 24.25L51.3438 20.3125C53.9688 21.25 55.625 22.4531 56.3125 23.9219C54.9062 26.3594 53.7188 29 52.75 31.8438C51.8125 34.6562 51.3438 36.9219 51.3438 38.6406C51.3438 42.7969 53 47.6875 56.3125 53.3125C55.5625 54.9062 53.9688 56.125 51.5312 56.9688C50.375 55.0625 49.5312 53.5938 49 52.5625C47.7188 50.4375 46.7031 48.8594 45.9531 47.8281C45.2344 46.7656 44.1406 45.7031 42.6719 44.6406C41.2031 43.5781 39.5781 43.0156 37.7969 42.9531H29.3594C29.3594 49.8594 29.4844 58.2812 29.7344 68.2188H39.4375C47.375 68.2188 53.8281 66.6719 58.7969 63.5781C63.7969 60.4531 67.5781 56.5469 70.1406 51.8594C72.7656 52.8281 74.4219 54.0469 75.1094 55.5156C71.0156 62.2969 68.5938 68.7656 67.8438 74.9219H28.9375C16.5938 74.9219 7.42188 75.0156 1.42188 75.2031C0.765625 73.1719 0.734375 71.1875 1.32812 69.25C8.17188 68.5625 11.625 67.6406 11.6875 66.4844C12.0625 56.6719 12.25 46.8438 12.25 37C12.25 26.9375 12.0938 18.2344 11.7812 10.8906C11.7188 9.73437 8.23438 8.8125 1.32812 8.125C0.734375 5.9375 0.796875 3.92187 1.51562 2.07812C11.1094 2.39063 17.4688 2.54688 20.5938 2.54688H65.9219C66.6719 8.67188 69.1094 15.125 73.2344 21.9062C72.5156 23.4062 70.8438 24.625 68.2188 25.5625C65.6562 20.9063 61.875 17.0312 56.875 13.9375C51.9062 10.8125 45.4531 9.25 37.5156 9.25H29.8281C29.5156 20.4687 29.3594 29.0781 29.3594 35.0781C31.3281 35.1406 34.1719 35.1719 37.8906 35.1719C40.5156 35.1719 42.6094 34.2969 44.1719 32.5469C45.7344 30.7656 47.4531 28 49.3281 24.25ZM139.047 43.0469V36.9062C139.047 29.6875 138.891 21.2031 138.578 11.4531C138.516 9.79688 135.094 8.6875 128.312 8.125C127.875 7.03125 127.656 6.03125 127.656 5.125C127.656 4.5625 127.875 3.60938 128.312 2.26562C133.062 2.45312 137.828 2.54688 142.609 2.54688C147.422 2.54688 152.359 2.45312 157.422 2.26562C157.859 3.60938 158.078 4.5625 158.078 5.125C158.078 6.03125 157.859 7.03125 157.422 8.125C150.953 8.75 147.688 9.85938 147.625 11.4531C147.219 18.0469 147.016 27.6875 147.016 40.375C147.016 54.6875 147.219 66.2656 147.625 75.1094L143.781 75.2031L99.2969 20.7812C99.2969 21.3438 99.2812 22.375 99.25 23.875C99.2188 25.3438 99.2031 26.4844 99.2031 27.2969C99.2031 42.3906 99.4062 55.25 99.8125 65.875C99.875 67.5625 103.297 68.6875 110.078 69.25C110.516 70.3438 110.734 71.3438 110.734 72.25C110.734 72.9375 110.516 73.9531 110.078 75.2969C105.266 75.1094 100.5 75.0156 95.7812 75.0156C90.9688 75.0156 86.0312 75.1094 80.9688 75.2969C80.5312 73.9531 80.3125 72.9375 80.3125 72.25C80.3125 71.3438 80.5312 70.3438 80.9688 69.25C87.4375 68.625 90.7031 67.5 90.7656 65.875C91.1406 59.3125 91.3281 49.6875 91.3281 37C91.3281 27.2812 91.2031 18.6094 90.9531 10.9844C88.9219 9.39062 85.8281 8.4375 81.6719 8.125C81.2031 7.28125 80.9688 6.3125 80.9688 5.21875C80.9688 4.0625 81.2656 3.01562 81.8594 2.07812C88.3906 2.39063 96.6406 2.54688 106.609 2.54688L139.047 43.0469ZM145.094 40.375C145.094 30.9062 145.297 21.2656 145.703 11.4531C145.828 8.64062 149.281 6.92187 156.062 6.29688C156.312 5.76563 156.312 5.03125 156.062 4.09375C150.156 4.28125 145.969 4.375 143.5 4.375C139.594 4.375 135.141 4.28125 130.141 4.09375C129.891 5.03125 129.891 5.76563 130.141 6.29688C136.984 6.92187 140.438 8.64062 140.5 11.4531C140.812 21.2031 140.969 29.6875 140.969 36.9062C140.969 41.125 140.906 46.8125 140.781 53.9688L100.375 4.46875C93.3438 4.46875 87.5156 4.34375 82.8906 4.09375C82.6406 4.84375 82.6406 5.57813 82.8906 6.29688C86.9219 6.54687 90.25 7.82813 92.875 10.1406C93.125 17.7344 93.25 26.6875 93.25 37C93.25 46.4688 93.0625 56.0938 92.6875 65.875C92.5625 68.7188 89.1094 70.4531 82.3281 71.0781C82.0781 71.5781 82.0781 72.3125 82.3281 73.2812C88.2031 73.0938 92.3906 73 94.8906 73C98.7969 73 103.25 73.0938 108.25 73.2812C108.5 72.3125 108.5 71.5781 108.25 71.0781C101.406 70.4531 97.9531 68.7188 97.8906 65.875C97.5781 56.1562 97.4219 47.6875 97.4219 40.4688C97.4219 32.2188 97.5156 24.0469 97.7031 15.9531H98.1719L144.719 73.2812L145.609 73.1875C145.266 65.8438 145.094 54.9062 145.094 40.375ZM189.625 37C189.625 29.3125 189.781 20.5781 190.094 10.7969C190.156 8.42187 195.375 6.92187 205.75 6.29688C205.938 5.70312 205.938 4.96875 205.75 4.09375C197.562 4.34375 191.172 4.46875 186.578 4.46875C182.734 4.46875 177.297 4.34375 170.266 4.09375C169.984 4.65625 169.984 5.39063 170.266 6.29688C177.422 6.98438 181.031 8.48438 181.094 10.7969C181.406 18.1406 181.562 26.875 181.562 37V70.4219C181.562 79.5156 180.906 85.875 179.594 89.5C178.281 93.1562 175.547 94.9844 171.391 94.9844C168.391 94.9844 166.078 94.1719 164.453 92.5469C162.859 90.9219 162.062 89.0469 162.062 86.9219C162.062 85.2656 162.484 83.9531 163.328 82.9844C164.172 82.0156 165.172 81.5312 166.328 81.5312C167.391 81.5312 168.312 81.9219 169.094 82.7031C169.875 82.5156 170.391 81.9688 170.641 81.0625C169.484 79.4062 167.781 78.5781 165.531 78.5781C163.281 78.5781 161.469 79.2969 160.094 80.7344C158.719 82.1719 158.031 84.1719 158.031 86.7344C158.031 89.7344 159.203 92.3438 161.547 94.5625C163.891 96.8125 167.172 97.9375 171.391 97.9375C173.109 97.9375 174.672 97.75 176.078 97.375C177.484 97 178.766 96.375 179.922 95.5C181.078 94.6562 182.094 93.7031 182.969 92.6406C183.844 91.5781 184.609 90.125 185.266 88.2812C185.953 86.4688 186.531 84.6875 187 82.9375C187.469 81.1875 187.859 78.9375 188.172 76.1875C188.516 73.4375 188.781 70.8281 188.969 68.3594C189.156 65.8906 189.297 62.7969 189.391 59.0781C189.484 55.3594 189.547 51.9219 189.578 48.7656C189.609 45.6094 189.625 41.6875 189.625 37ZM172.562 99.8594C167.188 99.8594 163.125 98.5781 160.375 96.0156C157.594 93.4844 156.172 90.3906 156.109 86.7344C156.047 83.5156 156.969 81.0156 158.875 79.2344C160.75 77.4531 162.938 76.5625 165.438 76.5625C167.812 76.5625 169.859 77.3594 171.578 78.9531C173.297 80.5469 174.156 82.75 174.156 85.5625C174.156 86.7812 173.969 87.7969 173.594 88.6094C173.219 89.4531 172.797 90.1094 172.328 90.5781C171.891 91.0781 171.641 91.4219 171.578 91.6094C171.828 92.2031 172.375 92.625 173.219 92.875C175.844 92.3125 177.562 90.3281 178.375 86.9219C179.219 83.5156 179.641 78.0156 179.641 70.4219V37C179.641 26.9375 179.484 18.2344 179.172 10.8906C179.109 9.73437 175.625 8.8125 168.719 8.125C168.188 6.0625 168.25 4.04688 168.906 2.07812C174.406 2.39063 181.406 2.54688 189.906 2.54688C191.188 2.54688 193.75 2.51562 197.594 2.45312C201.438 2.39063 204.797 2.35938 207.672 2.35938C208.266 4.14062 208.297 6.0625 207.766 8.125C200.859 8.8125 197.375 9.73437 197.312 10.8906C196.938 18.7031 196.75 28.5625 196.75 40.4688C196.75 45.5312 196.688 50.0156 196.562 53.9219C196.438 57.7969 196.156 61.8906 195.719 66.2031C195.312 70.4844 194.75 74.1875 194.031 77.3125C193.344 80.4688 192.391 83.5312 191.172 86.5C189.953 89.4688 188.5 91.875 186.812 93.7188C185.125 95.5938 183.078 97.0781 180.672 98.1719C178.266 99.2969 175.562 99.8594 172.562 99.8594ZM255.016 7.89062C252.609 8.07812 250.453 8.65625 248.547 9.625C246.641 10.5938 244.969 11.8594 243.531 13.4219C242.094 14.9531 240.859 16.7187 239.828 18.7188C238.828 20.6875 238 22.7812 237.344 25C236.719 27.2188 236.25 29.5156 235.938 31.8906C235.656 34.2344 235.516 36.5469 235.516 38.8281C235.516 41.1094 235.656 43.4375 235.938 45.8125C236.25 48.1562 236.734 50.4375 237.391 52.6562C238.047 54.875 238.875 56.9688 239.875 58.9375C240.906 60.9062 242.141 62.6562 243.578 64.1875C245.047 65.6875 246.719 66.9062 248.594 67.8438C250.5 68.7812 252.641 69.3438 255.016 69.5312C257.453 69.3438 259.625 68.7812 261.531 67.8438C263.438 66.875 265.109 65.6406 266.547 64.1406C268.016 62.6094 269.25 60.8594 270.25 58.8906C271.281 56.8906 272.109 54.7969 272.734 52.6094C273.391 50.3906 273.859 48.1094 274.141 45.7656C274.453 43.3906 274.609 41.0781 274.609 38.8281C274.609 36.5469 274.453 34.2344 274.141 31.8906C273.859 29.5156 273.391 27.2188 272.734 25C272.109 22.75 271.281 20.6406 270.25 18.6719C269.25 16.6719 268.016 14.9063 266.547 13.375C265.109 11.8437 263.422 10.5938 261.484 9.625C259.578 8.65625 257.422 8.07812 255.016 7.89062ZM253.375 71.5469C250.281 71.5469 247.516 71.0938 245.078 70.1875C242.641 69.25 240.484 68 238.609 66.4375C236.766 64.8438 235.188 62.9844 233.875 60.8594C232.594 58.7344 231.531 56.4688 230.688 54.0625C229.875 51.625 229.281 49.1094 228.906 46.5156C228.531 43.8906 228.344 41.3281 228.344 38.8281C228.344 36.3281 228.531 33.7812 228.906 31.1875C229.281 28.5625 229.875 26.0312 230.688 23.5938C231.5 21.1562 232.562 18.8594 233.875 16.7031C235.188 14.5469 236.766 12.6719 238.609 11.0781C240.453 9.48438 242.594 8.21875 245.031 7.28125C247.5 6.34375 250.281 5.875 253.375 5.875C256.219 5.875 258.766 6.34375 261.016 7.28125C263.266 8.1875 265.234 9.45312 266.922 11.0781C268.641 12.6719 270.109 14.5469 271.328 16.7031C272.547 18.8594 273.531 21.1562 274.281 23.5938C275.062 26.0312 275.625 28.5625 275.969 31.1875C276.344 33.7812 276.531 36.3281 276.531 38.8281C276.531 41.3281 276.359 43.875 276.016 46.4688C275.672 49.0312 275.109 51.5312 274.328 53.9688C273.578 56.375 272.594 58.6562 271.375 60.8125C270.188 62.9375 268.734 64.7969 267.016 66.3906C265.297 67.9844 263.312 69.25 261.062 70.1875C258.812 71.0938 256.25 71.5469 253.375 71.5469ZM253.375 74.9219C255.531 74.9219 257.859 74.7031 260.359 74.2656C262.859 73.8281 265.344 73.0781 267.812 72.0156C270.312 70.9531 272.719 69.5312 275.031 67.75C277.344 65.9688 279.375 63.75 281.125 61.0938C282.906 58.4062 284.328 55.2344 285.391 51.5781C286.453 47.8906 286.984 43.6406 286.984 38.8281C286.984 34.1094 286.453 29.9375 285.391 26.3125C284.359 22.6562 282.969 19.4844 281.219 16.7969C279.469 14.1094 277.453 11.8594 275.172 10.0469C272.891 8.23437 270.5 6.78125 268 5.6875C265.5 4.5625 262.984 3.76562 260.453 3.29688C257.953 2.79687 255.594 2.54688 253.375 2.54688C251.219 2.54688 248.844 2.76563 246.25 3.20312C243.656 3.60938 241.047 4.34375 238.422 5.40625C235.797 6.4375 233.25 7.84375 230.781 9.625C228.312 11.4062 226.125 13.6406 224.219 16.3281C222.312 19.0156 220.781 22.2188 219.625 25.9375C218.469 29.625 217.891 33.9219 217.891 38.8281C217.891 43.5781 218.438 47.7656 219.531 51.3906C220.656 55.0156 222.141 58.1719 223.984 60.8594C225.828 63.5156 227.953 65.75 230.359 67.5625C232.797 69.3438 235.328 70.7812 237.953 71.875C240.578 72.9688 243.219 73.75 245.875 74.2188C248.531 74.6875 251.031 74.9219 253.375 74.9219ZM255.016 77.0312C248.734 77.0312 243.172 76.1094 238.328 74.2656C233.484 72.4531 229.406 69.8906 226.094 66.5781C222.781 63.2344 220.266 59.2188 218.547 54.5312C216.828 49.8125 215.969 44.5781 215.969 38.8281C215.969 33.0781 216.828 27.8594 218.547 23.1719C220.266 18.4531 222.781 14.4375 226.094 11.125C229.406 7.78125 233.484 5.20313 238.328 3.39062C243.172 1.54688 248.734 0.625 255.016 0.625C260.922 0.625 266.281 1.46875 271.094 3.15625C275.938 4.84375 280.062 7.3125 283.469 10.5625C286.906 13.7813 289.547 17.7656 291.391 22.5156C293.266 27.2656 294.203 32.7031 294.203 38.8281C294.203 44.9844 293.266 50.4375 291.391 55.1875C289.547 59.9062 286.906 63.8906 283.469 67.1406C280.062 70.3906 275.938 72.8438 271.094 74.5C266.281 76.1875 260.922 77.0312 255.016 77.0312ZM344.5 66.3906C344.562 67.5469 348.047 68.4688 354.953 69.1562C355.391 71 355.328 72.9844 354.766 75.1094C346.172 74.9844 339.703 74.9219 335.359 74.9219C331.078 74.9219 324.641 74.9844 316.047 75.1094C315.047 73.2656 315.047 71.2812 316.047 69.1562C322.859 68.4688 326.297 67.5781 326.359 66.4844C326.672 57.8281 326.859 50.0781 326.922 43.2344L309.438 12.8125C307.906 10.25 304.297 8.6875 298.609 8.125C298.359 7.15625 298.234 6.21875 298.234 5.3125C298.234 4.34375 298.422 3.29688 298.797 2.17188C305.391 2.42187 313.156 2.54688 322.094 2.54688C328.562 2.54688 333.344 2.48438 336.438 2.35938C336.75 3.42188 336.906 4.34375 336.906 5.125C336.906 6.03125 336.75 7.0625 336.438 8.21875C333.094 8.46875 330.781 8.75 329.5 9.0625C328.219 9.375 327.578 9.85938 327.578 10.5156C327.578 10.7031 331.391 17.6406 339.016 31.3281C347.516 17.2031 351.766 10.0625 351.766 9.90625C351.766 9.59375 351.578 9.3125 351.203 9.0625C350.828 8.8125 350.312 8.60937 349.656 8.45312C349.031 8.29688 348.438 8.1875 347.875 8.125C347.344 8.0625 346.719 8 346 7.9375C345.312 7.84375 344.906 7.79688 344.781 7.79688C344.25 6.14063 344.344 4.26563 345.062 2.17188C350.812 2.42187 355.094 2.54688 357.906 2.54688C360.531 2.54688 364.344 2.42187 369.344 2.17188C370.062 4.32812 370.062 6.3125 369.344 8.125C364.531 8.5625 361.359 10 359.828 12.4375L343.984 37.8438C343.984 50.5312 344.156 60.0469 344.5 66.3906ZM328.281 66.5781C328.188 68.8906 324.562 70.3906 317.406 71.0781C317.094 71.8594 317.094 72.625 317.406 73.375C331.219 73.125 343.062 73.0938 352.938 73.2812C353.188 72.6562 353.188 71.8906 352.938 70.9844C342.562 70.3594 337.344 68.8906 337.281 66.5781C336.969 57.6094 336.812 50.6562 336.812 45.7188L358.234 11.4531C360.078 8.45312 363.328 6.73437 367.984 6.29688C368.266 5.76563 368.266 5.03125 367.984 4.09375C364.484 4.28125 360.938 4.375 357.344 4.375C354.094 4.375 350.453 4.28125 346.422 4.09375C346.141 4.59375 346.141 5.32812 346.422 6.29688C351.016 6.79688 353.469 7.8125 353.781 9.34375C353.906 9.9375 353.719 10.6406 353.219 11.4531L336.25 39.4844L320.875 12.0625C319.781 10 320.109 8.64062 321.859 7.98438C323.641 7.29687 327.891 6.73437 334.609 6.29688C334.859 5.39063 334.859 4.65625 334.609 4.09375C325.391 4.53125 313.891 4.53125 300.109 4.09375C299.859 4.65625 299.859 5.39063 300.109 6.29688C305.641 6.79688 309.328 8.71875 311.172 12.0625L328.844 42.8594C328.781 50.2031 328.594 58.1094 328.281 66.5781Z" fill="white"/>
</svg>
