<svg width="880" height="400" viewBox="0 0 880 400" fill="none" xmlns="http://www.w3.org/2000/svg">
<path d="M205.261 184.995C200.703 184.751 196.268 184.425 191.955 184.019C187.723 183.53 183.858 182.879 180.358 182.065C176.859 181.252 173.889 180.194 171.447 178.892C169.087 177.508 167.541 175.799 166.809 173.765L99.3037 7.0166C97.9202 7.09798 96.5775 7.66764 95.2754 8.72559C94.7057 18.8167 91.6133 26.9141 85.998 33.0176L88.8057 40.2197L37.292 169.736C34.0368 177.874 24.027 182.961 7.2627 184.995C6.77441 186.134 6.53027 187.152 6.53027 188.047C6.53027 189.023 6.77441 190 7.2627 190.977C16.54 190.651 23.9863 190.407 29.6016 190.244C35.2982 190.081 39.2044 190 41.3203 190C43.1921 190 47.4238 190.081 54.0156 190.244C60.6888 190.407 69.722 190.651 81.1152 190.977C81.6035 190 81.8477 189.023 81.8477 188.047C81.8477 187.152 81.6035 186.134 81.1152 184.995C74.3607 184.344 68.8675 183.652 64.6357 182.92C60.404 182.106 57.1081 181.252 54.748 180.356C52.388 179.461 50.8011 178.485 49.9873 177.427C49.1735 176.287 48.7666 175.026 48.7666 173.643C48.7666 172.747 48.9294 171.852 49.2549 170.957L67.0771 126.279C76.1104 126.117 83.3939 125.994 88.9277 125.913C94.543 125.832 98.4085 125.791 100.524 125.791C105.163 125.791 109.273 125.832 112.854 125.913C116.516 125.913 119.649 125.954 122.253 126.035L139.953 170.957C140.36 172.178 140.563 173.114 140.563 173.765C140.563 175.962 139.424 177.915 137.146 179.624C134.948 181.333 132.222 182.513 128.967 183.164L115.783 184.995C115.295 186.134 115.051 187.152 115.051 188.047C115.051 189.023 115.295 190 115.783 190.977C122.701 190.732 129.699 190.529 136.779 190.366C143.941 190.203 151.265 190.122 158.752 190.122C166.239 190.122 173.807 190.203 181.457 190.366C189.188 190.529 197.123 190.732 205.261 190.977C205.83 189.837 206.115 188.861 206.115 188.047C206.115 187.559 206.034 187.07 205.871 186.582C205.708 186.094 205.505 185.565 205.261 184.995ZM100.524 116.27C88.7243 116.27 78.9993 116.107 71.3496 115.781L94.543 55.9668H95.0312L118.347 116.025C113.952 116.188 108.011 116.27 100.524 116.27ZM94.7871 68.7842L78.5518 111.021C88.3988 111.509 99.2223 111.59 111.022 111.265L94.7871 68.7842ZM209.045 180.479C211.079 185.361 210.998 190.529 208.801 195.981H111.999C110.046 190.366 110.046 185.199 111.999 180.479C120.869 179.99 127.136 179.095 130.798 177.793C134.46 176.41 135.721 174.212 134.582 171.201L118.591 130.796C103.535 130.226 87.4222 130.389 70.251 131.284L54.5039 171.689C54.0156 173.073 54.3818 174.334 55.6025 175.474C56.9046 176.532 58.9798 177.386 61.8281 178.037C64.6764 178.688 68.013 179.217 71.8379 179.624C75.6628 180.031 79.9759 180.316 84.7773 180.479C86.8118 185.361 86.7305 190.529 84.5332 195.981C57.8405 195.005 30.9443 195.005 3.84473 195.981C1.64746 190.529 1.56608 185.361 3.60059 180.479C20.3649 178.525 29.8457 174.863 32.043 169.492L83.5566 39.9756C83.2311 39.3245 82.5801 37.8597 81.6035 35.5811C80.7083 33.221 80.1794 31.6748 80.0166 30.9424C86.3643 24.5133 89.8636 16.2126 90.5146 6.04004C97.6761 2.54069 106.099 0.546875 115.783 0.0585938L184.265 169.98C185.811 173.805 188.252 176.369 191.589 177.671C194.925 178.892 200.744 179.827 209.045 180.479ZM289.416 96.25C289.416 76.2305 289.823 53.4847 290.637 28.0127C290.799 21.8278 304.39 17.9215 331.408 16.2939C331.896 14.7477 331.896 12.8353 331.408 10.5566C310.087 11.2077 293.444 11.5332 281.481 11.5332C271.472 11.5332 257.271 11.2077 238.879 10.5566C238.228 12.0215 238.228 13.9339 238.879 16.2939C257.596 18.0843 267.036 21.9906 267.199 28.0127C268.013 47.137 268.42 69.8828 268.42 96.25C268.42 122.048 267.932 147.723 266.955 173.276C266.792 179.299 257.352 183.205 238.635 184.995C238.146 187.03 238.146 188.942 238.635 190.732C254.341 190.244 290.84 190 348.132 190C367.663 190 382.312 186.338 392.077 179.014C401.843 171.689 410.957 159.36 419.421 142.026C418.77 140.643 417.346 139.544 415.148 138.73C411.975 144.59 408.475 149.798 404.65 154.355C400.826 158.913 395.78 163.511 389.514 168.149C383.247 172.707 375.435 176.247 366.076 178.77C356.799 181.292 346.26 182.554 334.46 182.554H290.393C289.742 153.989 289.416 125.221 289.416 96.25ZM307.971 105.283C307.971 127.581 308.296 151.67 308.947 177.549H334.216C370.349 177.549 396.594 162.534 412.951 132.505C419.787 135.028 424.1 138.201 425.891 142.026C414.253 161.313 407.417 178.973 405.383 195.005H306.872C274.727 195.005 250.842 195.249 235.217 195.737C233.508 190.448 233.426 185.28 234.973 180.234C252.795 178.444 261.787 176.043 261.95 173.032C262.927 147.479 263.415 121.885 263.415 96.25C263.415 70.0456 263.008 47.3812 262.194 28.2568C262.032 25.2458 252.958 22.8451 234.973 21.0547C233.589 15.6836 233.752 10.4346 235.461 5.30762C249.621 6.12142 267.85 6.52832 290.148 6.52832C293.485 6.52832 300.158 6.44694 310.168 6.28418C320.178 6.12142 328.926 6.04004 336.413 6.04004C337.959 10.6787 338.041 15.6836 336.657 21.0547C318.672 22.8451 309.598 25.2458 309.436 28.2568C308.459 48.6019 307.971 74.2773 307.971 105.283ZM652.868 184.995C648.311 184.751 643.876 184.425 639.562 184.019C635.331 183.53 631.465 182.879 627.966 182.065C624.466 181.252 621.496 180.194 619.055 178.892C616.695 177.508 615.148 175.799 614.416 173.765L546.911 7.0166C545.528 7.09798 544.185 7.66764 542.883 8.72559C542.313 18.8167 539.221 26.9141 533.605 33.0176L536.413 40.2197L484.899 169.736C481.644 177.874 471.634 182.961 454.87 184.995C454.382 186.134 454.138 187.152 454.138 188.047C454.138 189.023 454.382 190 454.87 190.977C464.147 190.651 471.594 190.407 477.209 190.244C482.906 190.081 486.812 190 488.928 190C490.799 190 495.031 190.081 501.623 190.244C508.296 190.407 517.329 190.651 528.723 190.977C529.211 190 529.455 189.023 529.455 188.047C529.455 187.152 529.211 186.134 528.723 184.995C521.968 184.344 516.475 183.652 512.243 182.92C508.011 182.106 504.715 181.252 502.355 180.356C499.995 179.461 498.409 178.485 497.595 177.427C496.781 176.287 496.374 175.026 496.374 173.643C496.374 172.747 496.537 171.852 496.862 170.957L514.685 126.279C523.718 126.117 531.001 125.994 536.535 125.913C542.15 125.832 546.016 125.791 548.132 125.791C552.771 125.791 556.88 125.832 560.461 125.913C564.123 125.913 567.256 125.954 569.86 126.035L587.561 170.957C587.967 172.178 588.171 173.114 588.171 173.765C588.171 175.962 587.032 177.915 584.753 179.624C582.556 181.333 579.829 182.513 576.574 183.164L563.391 184.995C562.902 186.134 562.658 187.152 562.658 188.047C562.658 189.023 562.902 190 563.391 190.977C570.308 190.732 577.307 190.529 584.387 190.366C591.548 190.203 598.872 190.122 606.359 190.122C613.846 190.122 621.415 190.203 629.064 190.366C636.796 190.529 644.73 190.732 652.868 190.977C653.438 189.837 653.723 188.861 653.723 188.047C653.723 187.559 653.641 187.07 653.479 186.582C653.316 186.094 653.112 185.565 652.868 184.995ZM548.132 116.27C536.332 116.27 526.607 116.107 518.957 115.781L542.15 55.9668H542.639L565.954 116.025C561.56 116.188 555.619 116.27 548.132 116.27ZM542.395 68.7842L526.159 111.021C536.006 111.509 546.83 111.59 558.63 111.265L542.395 68.7842ZM656.652 180.479C658.687 185.361 658.605 190.529 656.408 195.981H559.606C557.653 190.366 557.653 185.199 559.606 180.479C568.477 179.99 574.743 179.095 578.405 177.793C582.067 176.41 583.329 174.212 582.189 171.201L566.198 130.796C551.143 130.226 535.03 130.389 517.858 131.284L502.111 171.689C501.623 173.073 501.989 174.334 503.21 175.474C504.512 176.532 506.587 177.386 509.436 178.037C512.284 178.688 515.62 179.217 519.445 179.624C523.27 180.031 527.583 180.316 532.385 180.479C534.419 185.361 534.338 190.529 532.141 195.981C505.448 195.005 478.552 195.005 451.452 195.981C449.255 190.529 449.174 185.361 451.208 180.479C467.972 178.525 477.453 174.863 479.65 169.492L531.164 39.9756C530.839 39.3245 530.188 37.8597 529.211 35.5811C528.316 33.221 527.787 31.6748 527.624 30.9424C533.972 24.5133 537.471 16.2126 538.122 6.04004C545.284 2.54069 553.706 0.546875 563.391 0.0585938L631.872 169.98C633.418 173.805 635.86 176.369 639.196 177.671C642.533 178.892 648.352 179.827 656.652 180.479ZM738.488 18.9795H738.732C743.778 18.654 750.288 18.4912 758.264 18.4912C770.633 18.4912 780.074 22.3161 786.584 29.9658C793.176 37.6156 796.472 47.5439 796.472 59.751C796.472 72.1208 793.461 82.863 787.438 91.9775C781.498 101.011 772.18 105.527 759.484 105.527C751.997 105.527 744.592 104.591 737.268 102.72C737.268 74.0739 737.674 46.1605 738.488 18.9795ZM791.467 59.751C791.467 49.2529 788.293 40.4232 781.945 33.2617C775.679 26.1003 767.378 22.9264 757.043 23.7402C756.392 55.0716 756.066 80.1774 756.066 99.0576C757.694 99.5459 760.176 99.9528 763.513 100.278C773.034 99.2204 780.074 94.7445 784.631 86.8506C789.188 78.9567 791.467 69.9235 791.467 59.751ZM715.051 173.276C714.888 179.299 705.448 183.205 686.73 184.995C686.079 186.297 686.079 188.21 686.73 190.732C700.565 190.244 714.766 190 729.333 190C746.667 190 763.309 190.244 779.26 190.732C779.911 189.43 779.911 187.518 779.26 184.995C752.242 183.368 738.651 179.461 738.488 173.276C737.674 150.409 737.268 129.982 737.268 111.997C746.464 113.869 754.968 114.805 762.78 114.805C776.127 139.626 793.705 164.691 815.515 190C819.665 190 825.646 190.041 833.459 190.122C841.353 190.203 848.433 190.285 854.699 190.366C861.047 190.448 867.069 190.57 872.766 190.732C873.417 189.268 873.417 187.355 872.766 184.995C859.419 184.019 848.148 180.763 838.952 175.229C829.838 169.614 819.177 159.279 806.97 144.224C798.669 133.726 791.182 122.658 784.509 111.021C796.553 107.033 806.034 100.4 812.951 91.123C819.868 81.8457 823.327 71.3883 823.327 59.751C823.327 45.1025 818.607 33.2617 809.167 24.2285C799.727 15.1139 786.665 10.5566 769.982 10.5566C714.969 11.2077 687.3 11.2077 686.975 10.5566C686.486 12.5098 686.486 14.4222 686.975 16.2939C705.692 18.0843 715.132 21.9906 715.295 28.0127C716.109 47.137 716.516 69.8828 716.516 96.25C716.516 122.048 716.027 147.723 715.051 173.276ZM710.046 173.032C711.022 152.687 711.511 127.093 711.511 96.25C711.511 70.0456 711.104 47.3812 710.29 28.2568C710.127 25.2458 701.053 22.8451 683.068 21.0547C681.685 15.6836 681.848 10.4346 683.557 5.30762C692.508 5.7959 702.233 6.04004 712.731 6.04004C723.229 6.04004 735.274 5.95866 748.864 5.7959C762.455 5.63314 772.424 5.55176 778.771 5.55176C798.465 5.55176 813.928 10.5566 825.158 20.5664C836.389 30.4948 842.004 43.5563 842.004 59.751C842.004 71.2256 838.708 81.805 832.116 91.4893C825.524 101.174 816.654 108.498 805.505 113.462C811.039 122.495 817.468 131.772 824.792 141.294C833.418 152.769 841.882 161.883 850.183 168.638C858.565 175.392 867.842 179.258 878.015 180.234C879.317 185.443 879.154 190.692 877.526 195.981C865.889 195.656 844.486 195.33 813.317 195.005C790.45 168.312 772.587 143.247 759.729 119.81H756.066C756.066 134.946 756.473 152.687 757.287 173.032C757.287 173.521 757.491 174.009 757.897 174.497C758.304 174.985 759.891 175.758 762.658 176.816C765.425 177.874 769.616 178.81 775.231 179.624C780.928 180.356 784.102 180.804 784.753 180.967C786.136 185.524 785.892 190.529 784.021 195.981C753.991 195.33 735.762 195.005 729.333 195.005C724.938 195.005 709.598 195.33 683.312 195.981C681.278 190.366 681.278 185.117 683.312 180.234C700.972 178.444 709.883 176.043 710.046 173.032ZM345.446 395.005C357.816 395.005 370.471 392.197 383.41 386.582C396.431 380.885 406.726 372.544 414.294 361.558C414.294 360.5 413.806 359.604 412.829 358.872C411.934 358.14 410.917 357.773 409.777 357.773C397.57 372.585 379.626 379.99 355.944 379.99C330.961 379.99 312.08 372.463 299.304 357.407C286.608 342.271 280.261 323.472 280.261 301.011C280.261 290.838 281.359 281.032 283.557 271.592C285.835 262.07 289.335 252.996 294.055 244.37C298.856 235.662 305.651 228.623 314.44 223.252C323.311 217.881 333.646 215.195 345.446 215.195C353.503 215.195 360.949 216.457 367.785 218.979C374.621 221.502 380.236 224.473 384.631 227.891C389.025 231.309 393.298 235.907 397.448 241.685C401.68 247.381 404.854 252.345 406.97 256.577C409.167 260.728 411.771 266.017 414.782 272.446C417.224 272.121 418.729 271.226 419.299 269.761C413.277 245.591 404.162 229.03 391.955 220.078C379.829 211.045 364.326 206.528 345.446 206.528C337.797 206.528 329.984 207.464 322.009 209.336C314.034 211.126 305.814 214.382 297.351 219.102C288.968 223.74 281.563 229.518 275.134 236.436C268.705 243.271 263.415 252.305 259.265 263.535C255.114 274.684 253.039 287.176 253.039 301.011C253.039 314.845 255.114 327.337 259.265 338.486C263.415 349.635 268.705 358.628 275.134 365.464C281.563 372.3 288.968 378.037 297.351 382.676C305.814 387.233 314.034 390.407 322.009 392.197C329.984 394.069 337.797 395.005 345.446 395.005ZM411.73 277.939C408.231 270.127 405.017 263.698 402.087 258.652C399.157 253.525 395.251 247.829 390.368 241.562C385.485 235.215 379.667 230.291 372.912 226.792C366.158 223.293 358.589 221.177 350.207 220.444C340.93 221.177 332.832 224.147 325.915 229.355C318.998 234.482 313.627 241.074 309.802 249.131C306.058 257.188 303.291 265.57 301.501 274.277C299.792 282.904 298.938 291.815 298.938 301.011C298.938 321.519 304.105 338.73 314.44 352.646C324.776 366.562 340.197 374.009 360.705 374.985C380.562 374.009 396.146 366.603 407.458 352.769C410.632 352.769 413.399 353.826 415.759 355.942C418.119 357.977 419.299 360.418 419.299 363.267C411.079 375.229 399.971 384.344 385.974 390.61C371.976 396.877 358.467 400.01 345.446 400.01C337.308 400.01 329.048 399.033 320.666 397.08C312.365 395.208 303.739 391.872 294.787 387.07C285.917 382.188 278.063 376.125 271.228 368.882C264.392 361.639 258.817 352.158 254.504 340.439C250.191 328.639 248.034 315.496 248.034 301.011C248.034 285.874 250.272 272.365 254.748 260.483C259.224 248.521 264.961 238.958 271.96 231.797C278.959 224.635 287.137 218.695 296.496 213.975C305.855 209.173 314.929 205.918 323.718 204.209C332.588 202.419 341.499 201.523 350.451 201.523C362.658 201.523 375.923 203.151 390.246 206.406C404.569 209.661 414.823 211.696 421.008 212.51C418.322 223.008 417.264 232.244 417.834 240.22C418.404 248.114 420.723 257.798 424.792 269.272C422.432 274.074 418.078 276.963 411.73 277.939ZM616.613 395.005C525.305 395.005 472.652 395.249 458.654 395.737C458.166 395.33 457.637 394.639 457.067 393.662C456.498 392.686 455.969 391.628 455.48 390.488C454.992 389.349 454.585 388.25 454.26 387.192C454.016 386.053 453.894 385.158 453.894 384.507C472.774 357.814 491.491 331.121 510.046 304.429C528.601 277.655 546.952 250.84 565.1 223.984C557.694 224.391 550.98 225.002 544.958 225.815C538.936 226.629 533.321 227.769 528.112 229.233C522.904 230.698 517.94 232.529 513.22 234.727C508.581 236.842 503.861 239.406 499.06 242.417C494.258 245.347 489.294 248.765 484.167 252.671C479.04 256.577 473.425 261.012 467.321 265.977C461.543 264.593 457.637 261.704 455.603 257.31C470.007 242.173 480.179 224.92 486.12 205.552C496.618 205.959 507.116 206.243 517.614 206.406C528.112 206.488 538.692 206.528 549.353 206.528C560.013 206.528 570.674 206.488 581.335 206.406C591.996 206.243 602.779 205.959 613.684 205.552C619.136 207.342 621.862 211.33 621.862 217.515C601.029 246.974 581.335 275.05 562.78 301.743C544.226 328.354 526.851 353.623 510.656 377.549H545.324C555.415 377.549 564.449 376.043 572.424 373.032C580.399 369.94 587.357 365.749 593.298 360.459C599.239 355.169 604.203 348.944 608.19 341.782C612.259 334.621 615.474 326.93 617.834 318.711C624.344 320.094 629.024 322.617 631.872 326.279C631.547 327.5 631.058 329.25 630.407 331.528C629.838 333.807 629.146 336.37 628.332 339.219C627.6 342.067 626.786 345.119 625.891 348.374C624.995 351.548 624.141 354.681 623.327 357.773C622.513 360.785 621.781 363.674 621.13 366.44C620.479 369.207 619.706 372.788 618.811 377.183C617.915 381.496 617.183 387.437 616.613 395.005ZM559.362 390C578.243 390 592.565 385.036 602.331 375.107C612.178 365.179 619.868 349.066 625.402 326.768C624.019 325.628 622.432 324.937 620.642 324.692C618.444 332.586 615.555 339.748 611.975 346.177C608.394 352.524 603.674 358.547 597.814 364.243C592.036 369.94 584.672 374.416 575.72 377.671C566.849 380.926 556.799 382.554 545.568 382.554H487.585C525.752 326.157 564.286 270.656 603.186 216.05C603.186 213.364 601.843 211.533 599.157 210.557C568.151 211.37 531.734 211.37 489.904 210.557C484.045 228.867 474.686 244.777 461.828 258.286C462.886 260.076 464.554 260.972 466.833 260.972C480.993 247.788 491.857 235.215 499.426 223.252C501.704 223.089 511.755 222.316 529.577 220.933C547.481 219.468 562.577 218.654 574.865 218.491C537.512 273.993 498.856 329.819 458.898 385.972C458.898 388.006 459.468 389.593 460.607 390.732C469.478 390.244 502.396 390 559.362 390Z" fill="white"/>
</svg>
