<svg width="640" height="428" viewBox="0 0 640 428" fill="none" xmlns="http://www.w3.org/2000/svg">
<path d="M237.328 199.078C235.578 198.984 233.875 198.859 232.219 198.703C230.594 198.516 229.109 198.266 227.766 197.953C226.422 197.641 225.281 197.234 224.344 196.734C223.438 196.203 222.844 195.547 222.562 194.766L196.641 130.734C196.109 130.766 195.594 130.984 195.094 131.391C194.875 135.266 193.688 138.375 191.531 140.719L192.609 143.484L172.828 193.219C171.578 196.344 167.734 198.297 161.297 199.078C161.109 199.516 161.016 199.906 161.016 200.25C161.016 200.625 161.109 201 161.297 201.375C164.859 201.25 167.719 201.156 169.875 201.094C172.062 201.031 173.562 201 174.375 201C175.094 201 176.719 201.031 179.25 201.094C181.812 201.156 185.281 201.25 189.656 201.375C189.844 201 189.938 200.625 189.938 200.25C189.938 199.906 189.844 199.516 189.656 199.078C187.062 198.828 184.953 198.562 183.328 198.281C181.703 197.969 180.438 197.641 179.531 197.297C178.625 196.953 178.016 196.578 177.703 196.172C177.391 195.734 177.234 195.25 177.234 194.719C177.234 194.375 177.297 194.031 177.422 193.688L184.266 176.531C187.734 176.469 190.531 176.422 192.656 176.391C194.812 176.359 196.297 176.344 197.109 176.344C198.891 176.344 200.469 176.359 201.844 176.391C203.25 176.391 204.453 176.406 205.453 176.438L212.25 193.688C212.406 194.156 212.484 194.516 212.484 194.766C212.484 195.609 212.047 196.359 211.172 197.016C210.328 197.672 209.281 198.125 208.031 198.375L202.969 199.078C202.781 199.516 202.688 199.906 202.688 200.25C202.688 200.625 202.781 201 202.969 201.375C205.625 201.281 208.312 201.203 211.031 201.141C213.781 201.078 216.594 201.047 219.469 201.047C222.344 201.047 225.25 201.078 228.188 201.141C231.156 201.203 234.203 201.281 237.328 201.375C237.547 200.938 237.656 200.562 237.656 200.25C237.656 200.062 237.625 199.875 237.562 199.688C237.5 199.5 237.422 199.297 237.328 199.078ZM197.109 172.688C192.578 172.688 188.844 172.625 185.906 172.5L194.812 149.531H195L203.953 172.594C202.266 172.656 199.984 172.688 197.109 172.688ZM194.906 154.453L188.672 170.672C192.453 170.859 196.609 170.891 201.141 170.766L194.906 154.453ZM238.781 197.344C239.562 199.219 239.531 201.203 238.688 203.297H201.516C200.766 201.141 200.766 199.156 201.516 197.344C204.922 197.156 207.328 196.812 208.734 196.312C210.141 195.781 210.625 194.938 210.188 193.781L204.047 178.266C198.266 178.047 192.078 178.109 185.484 178.453L179.438 193.969C179.25 194.5 179.391 194.984 179.859 195.422C180.359 195.828 181.156 196.156 182.25 196.406C183.344 196.656 184.625 196.859 186.094 197.016C187.562 197.172 189.219 197.281 191.062 197.344C191.844 199.219 191.812 201.203 190.969 203.297C180.719 202.922 170.391 202.922 159.984 203.297C159.141 201.203 159.109 199.219 159.891 197.344C166.328 196.594 169.969 195.188 170.812 193.125L190.594 143.391C190.469 143.141 190.219 142.578 189.844 141.703C189.5 140.797 189.297 140.203 189.234 139.922C191.672 137.453 193.016 134.266 193.266 130.359C196.016 129.016 199.25 128.25 202.969 128.062L229.266 193.312C229.859 194.781 230.797 195.766 232.078 196.266C233.359 196.734 235.594 197.094 238.781 197.344ZM264.844 165C264.844 157.312 265 148.578 265.312 138.797C265.375 136.422 270.594 134.922 280.969 134.297C281.156 133.703 281.156 132.969 280.969 132.094C272.781 132.344 266.391 132.469 261.797 132.469C257.953 132.469 252.5 132.344 245.438 132.094C245.188 132.656 245.188 133.391 245.438 134.297C252.625 134.984 256.25 136.484 256.312 138.797C256.625 146.141 256.781 154.875 256.781 165C256.781 174.906 256.594 184.766 256.219 194.578C256.156 196.891 252.531 198.391 245.344 199.078C245.156 199.859 245.156 200.594 245.344 201.281C251.375 201.094 265.391 201 287.391 201C294.891 201 300.516 199.594 304.266 196.781C308.016 193.969 311.516 189.234 314.766 182.578C314.516 182.047 313.969 181.625 313.125 181.312C311.906 183.562 310.562 185.562 309.094 187.312C307.625 189.062 305.688 190.828 303.281 192.609C300.875 194.359 297.875 195.719 294.281 196.688C290.719 197.656 286.672 198.141 282.141 198.141H265.219C264.969 187.172 264.844 176.125 264.844 165ZM271.969 168.469C271.969 177.031 272.094 186.281 272.344 196.219H282.047C295.922 196.219 306 190.453 312.281 178.922C314.906 179.891 316.562 181.109 317.25 182.578C312.781 189.984 310.156 196.766 309.375 202.922H271.547C259.203 202.922 250.031 203.016 244.031 203.203C243.375 201.172 243.344 199.188 243.938 197.25C250.781 196.562 254.234 195.641 254.297 194.484C254.672 184.672 254.859 174.844 254.859 165C254.859 154.938 254.703 146.234 254.391 138.891C254.328 137.734 250.844 136.812 243.938 136.125C243.406 134.062 243.469 132.047 244.125 130.078C249.562 130.391 256.562 130.547 265.125 130.547C266.406 130.547 268.969 130.516 272.812 130.453C276.656 130.391 280.016 130.359 282.891 130.359C283.484 132.141 283.516 134.062 282.984 136.125C276.078 136.812 272.594 137.734 272.531 138.891C272.156 146.703 271.969 156.562 271.969 168.469ZM399.609 199.078C397.859 198.984 396.156 198.859 394.5 198.703C392.875 198.516 391.391 198.266 390.047 197.953C388.703 197.641 387.562 197.234 386.625 196.734C385.719 196.203 385.125 195.547 384.844 194.766L358.922 130.734C358.391 130.766 357.875 130.984 357.375 131.391C357.156 135.266 355.969 138.375 353.812 140.719L354.891 143.484L335.109 193.219C333.859 196.344 330.016 198.297 323.578 199.078C323.391 199.516 323.297 199.906 323.297 200.25C323.297 200.625 323.391 201 323.578 201.375C327.141 201.25 330 201.156 332.156 201.094C334.344 201.031 335.844 201 336.656 201C337.375 201 339 201.031 341.531 201.094C344.094 201.156 347.562 201.25 351.938 201.375C352.125 201 352.219 200.625 352.219 200.25C352.219 199.906 352.125 199.516 351.938 199.078C349.344 198.828 347.234 198.562 345.609 198.281C343.984 197.969 342.719 197.641 341.812 197.297C340.906 196.953 340.297 196.578 339.984 196.172C339.672 195.734 339.516 195.25 339.516 194.719C339.516 194.375 339.578 194.031 339.703 193.688L346.547 176.531C350.016 176.469 352.812 176.422 354.938 176.391C357.094 176.359 358.578 176.344 359.391 176.344C361.172 176.344 362.75 176.359 364.125 176.391C365.531 176.391 366.734 176.406 367.734 176.438L374.531 193.688C374.688 194.156 374.766 194.516 374.766 194.766C374.766 195.609 374.328 196.359 373.453 197.016C372.609 197.672 371.562 198.125 370.312 198.375L365.25 199.078C365.062 199.516 364.969 199.906 364.969 200.25C364.969 200.625 365.062 201 365.25 201.375C367.906 201.281 370.594 201.203 373.312 201.141C376.062 201.078 378.875 201.047 381.75 201.047C384.625 201.047 387.531 201.078 390.469 201.141C393.438 201.203 396.484 201.281 399.609 201.375C399.828 200.938 399.938 200.562 399.938 200.25C399.938 200.062 399.906 199.875 399.844 199.688C399.781 199.5 399.703 199.297 399.609 199.078ZM359.391 172.688C354.859 172.688 351.125 172.625 348.188 172.5L357.094 149.531H357.281L366.234 172.594C364.547 172.656 362.266 172.688 359.391 172.688ZM357.188 154.453L350.953 170.672C354.734 170.859 358.891 170.891 363.422 170.766L357.188 154.453ZM401.062 197.344C401.844 199.219 401.812 201.203 400.969 203.297H363.797C363.047 201.141 363.047 199.156 363.797 197.344C367.203 197.156 369.609 196.812 371.016 196.312C372.422 195.781 372.906 194.938 372.469 193.781L366.328 178.266C360.547 178.047 354.359 178.109 347.766 178.453L341.719 193.969C341.531 194.5 341.672 194.984 342.141 195.422C342.641 195.828 343.438 196.156 344.531 196.406C345.625 196.656 346.906 196.859 348.375 197.016C349.844 197.172 351.5 197.281 353.344 197.344C354.125 199.219 354.094 201.203 353.25 203.297C343 202.922 332.672 202.922 322.266 203.297C321.422 201.203 321.391 199.219 322.172 197.344C328.609 196.594 332.25 195.188 333.094 193.125L352.875 143.391C352.75 143.141 352.5 142.578 352.125 141.703C351.781 140.797 351.578 140.203 351.516 139.922C353.953 137.453 355.297 134.266 355.547 130.359C358.297 129.016 361.531 128.25 365.25 128.062L391.547 193.312C392.141 194.781 393.078 195.766 394.359 196.266C395.641 196.734 397.875 197.094 401.062 197.344ZM427.688 135.328H427.781C429.719 135.203 432.219 135.141 435.281 135.141C440.031 135.141 443.656 136.609 446.156 139.547C448.688 142.484 449.953 146.297 449.953 150.984C449.953 155.734 448.797 159.859 446.484 163.359C444.203 166.828 440.625 168.562 435.75 168.562C432.875 168.562 430.031 168.203 427.219 167.484C427.219 156.484 427.375 145.766 427.688 135.328ZM448.031 150.984C448.031 146.953 446.812 143.562 444.375 140.812C441.969 138.062 438.781 136.844 434.812 137.156C434.562 149.188 434.438 158.828 434.438 166.078C435.062 166.266 436.016 166.422 437.297 166.547C440.953 166.141 443.656 164.422 445.406 161.391C447.156 158.359 448.031 154.891 448.031 150.984ZM418.688 194.578C418.625 196.891 415 198.391 407.812 199.078C407.562 199.578 407.562 200.312 407.812 201.281C413.125 201.094 418.578 201 424.172 201C430.828 201 437.219 201.094 443.344 201.281C443.594 200.781 443.594 200.047 443.344 199.078C432.969 198.453 427.75 196.953 427.688 194.578C427.375 185.797 427.219 177.953 427.219 171.047C430.75 171.766 434.016 172.125 437.016 172.125C442.141 181.656 448.891 191.281 457.266 201C458.859 201 461.156 201.016 464.156 201.047C467.188 201.078 469.906 201.109 472.312 201.141C474.75 201.172 477.062 201.219 479.25 201.281C479.5 200.719 479.5 199.984 479.25 199.078C474.125 198.703 469.797 197.453 466.266 195.328C462.766 193.172 458.672 189.203 453.984 183.422C450.797 179.391 447.922 175.141 445.359 170.672C449.984 169.141 453.625 166.594 456.281 163.031C458.938 159.469 460.266 155.453 460.266 150.984C460.266 145.359 458.453 140.812 454.828 137.344C451.203 133.844 446.188 132.094 439.781 132.094C418.656 132.344 408.031 132.344 407.906 132.094C407.719 132.844 407.719 133.578 407.906 134.297C415.094 134.984 418.719 136.484 418.781 138.797C419.094 146.141 419.25 154.875 419.25 165C419.25 174.906 419.062 184.766 418.688 194.578ZM416.766 194.484C417.141 186.672 417.328 176.844 417.328 165C417.328 154.938 417.172 146.234 416.859 138.891C416.797 137.734 413.312 136.812 406.406 136.125C405.875 134.062 405.938 132.047 406.594 130.078C410.031 130.266 413.766 130.359 417.797 130.359C421.828 130.359 426.453 130.328 431.672 130.266C436.891 130.203 440.719 130.172 443.156 130.172C450.719 130.172 456.656 132.094 460.969 135.938C465.281 139.75 467.438 144.766 467.438 150.984C467.438 155.391 466.172 159.453 463.641 163.172C461.109 166.891 457.703 169.703 453.422 171.609C455.547 175.078 458.016 178.641 460.828 182.297C464.141 186.703 467.391 190.203 470.578 192.797C473.797 195.391 477.359 196.875 481.266 197.25C481.766 199.25 481.703 201.266 481.078 203.297C476.609 203.172 468.391 203.047 456.422 202.922C447.641 192.672 440.781 183.047 435.844 174.047H434.438C434.438 179.859 434.594 186.672 434.906 194.484C434.906 194.672 434.984 194.859 435.141 195.047C435.297 195.234 435.906 195.531 436.969 195.938C438.031 196.344 439.641 196.703 441.797 197.016C443.984 197.297 445.203 197.469 445.453 197.531C445.984 199.281 445.891 201.203 445.172 203.297C433.641 203.047 426.641 202.922 424.172 202.922C422.484 202.922 416.594 203.047 406.5 203.297C405.719 201.141 405.719 199.125 406.5 197.25C413.281 196.562 416.703 195.641 416.766 194.484ZM286.359 298.922C291.109 298.922 295.969 297.844 300.938 295.688C305.938 293.5 309.891 290.297 312.797 286.078C312.797 285.672 312.609 285.328 312.234 285.047C311.891 284.766 311.5 284.625 311.062 284.625C306.375 290.312 299.484 293.156 290.391 293.156C280.797 293.156 273.547 290.266 268.641 284.484C263.766 278.672 261.328 271.453 261.328 262.828C261.328 258.922 261.75 255.156 262.594 251.531C263.469 247.875 264.812 244.391 266.625 241.078C268.469 237.734 271.078 235.031 274.453 232.969C277.859 230.906 281.828 229.875 286.359 229.875C289.453 229.875 292.312 230.359 294.938 231.328C297.562 232.297 299.719 233.438 301.406 234.75C303.094 236.062 304.734 237.828 306.328 240.047C307.953 242.234 309.172 244.141 309.984 245.766C310.828 247.359 311.828 249.391 312.984 251.859C313.922 251.734 314.5 251.391 314.719 250.828C312.406 241.547 308.906 235.188 304.219 231.75C299.562 228.281 293.609 226.547 286.359 226.547C283.422 226.547 280.422 226.906 277.359 227.625C274.297 228.312 271.141 229.562 267.891 231.375C264.672 233.156 261.828 235.375 259.359 238.031C256.891 240.656 254.859 244.125 253.266 248.438C251.672 252.719 250.875 257.516 250.875 262.828C250.875 268.141 251.672 272.938 253.266 277.219C254.859 281.5 256.891 284.953 259.359 287.578C261.828 290.203 264.672 292.406 267.891 294.188C271.141 295.938 274.297 297.156 277.359 297.844C280.422 298.562 283.422 298.922 286.359 298.922ZM311.812 253.969C310.469 250.969 309.234 248.5 308.109 246.562C306.984 244.594 305.484 242.406 303.609 240C301.734 237.562 299.5 235.672 296.906 234.328C294.312 232.984 291.406 232.172 288.188 231.891C284.625 232.172 281.516 233.312 278.859 235.312C276.203 237.281 274.141 239.812 272.672 242.906C271.234 246 270.172 249.219 269.484 252.562C268.828 255.875 268.5 259.297 268.5 262.828C268.5 270.703 270.484 277.312 274.453 282.656C278.422 288 284.344 290.859 292.219 291.234C299.844 290.859 305.828 288.016 310.172 282.703C311.391 282.703 312.453 283.109 313.359 283.922C314.266 284.703 314.719 285.641 314.719 286.734C311.562 291.328 307.297 294.828 301.922 297.234C296.547 299.641 291.359 300.844 286.359 300.844C283.234 300.844 280.062 300.469 276.844 299.719C273.656 299 270.344 297.719 266.906 295.875C263.5 294 260.484 291.672 257.859 288.891C255.234 286.109 253.094 282.469 251.438 277.969C249.781 273.438 248.953 268.391 248.953 262.828C248.953 257.016 249.812 251.828 251.531 247.266C253.25 242.672 255.453 239 258.141 236.25C260.828 233.5 263.969 231.219 267.562 229.406C271.156 227.562 274.641 226.312 278.016 225.656C281.422 224.969 284.844 224.625 288.281 224.625C292.969 224.625 298.062 225.25 303.562 226.5C309.062 227.75 313 228.531 315.375 228.844C314.344 232.875 313.938 236.422 314.156 239.484C314.375 242.516 315.266 246.234 316.828 250.641C315.922 252.484 314.25 253.594 311.812 253.969ZM385.688 298.922C350.625 298.922 330.406 299.016 325.031 299.203C324.844 299.047 324.641 298.781 324.422 298.406C324.203 298.031 324 297.625 323.812 297.188C323.625 296.75 323.469 296.328 323.344 295.922C323.25 295.484 323.203 295.141 323.203 294.891C330.453 284.641 337.641 274.391 344.766 264.141C351.891 253.859 358.938 243.562 365.906 233.25C363.062 233.406 360.484 233.641 358.172 233.953C355.859 234.266 353.703 234.703 351.703 235.266C349.703 235.828 347.797 236.531 345.984 237.375C344.203 238.188 342.391 239.172 340.547 240.328C338.703 241.453 336.797 242.766 334.828 244.266C332.859 245.766 330.703 247.469 328.359 249.375C326.141 248.844 324.641 247.734 323.859 246.047C329.391 240.234 333.297 233.609 335.578 226.172C339.609 226.328 343.641 226.438 347.672 226.5C351.703 226.531 355.766 226.547 359.859 226.547C363.953 226.547 368.047 226.531 372.141 226.5C376.234 226.438 380.375 226.328 384.562 226.172C386.656 226.859 387.703 228.391 387.703 230.766C379.703 242.078 372.141 252.859 365.016 263.109C357.891 273.328 351.219 283.031 345 292.219H358.312C362.188 292.219 365.656 291.641 368.719 290.484C371.781 289.297 374.453 287.688 376.734 285.656C379.016 283.625 380.922 281.234 382.453 278.484C384.016 275.734 385.25 272.781 386.156 269.625C388.656 270.156 390.453 271.125 391.547 272.531C391.422 273 391.234 273.672 390.984 274.547C390.766 275.422 390.5 276.406 390.188 277.5C389.906 278.594 389.594 279.766 389.25 281.016C388.906 282.234 388.578 283.438 388.266 284.625C387.953 285.781 387.672 286.891 387.422 287.953C387.172 289.016 386.875 290.391 386.531 292.078C386.188 293.734 385.906 296.016 385.688 298.922ZM363.703 297C370.953 297 376.453 295.094 380.203 291.281C383.984 287.469 386.938 281.281 389.062 272.719C388.531 272.281 387.922 272.016 387.234 271.922C386.391 274.953 385.281 277.703 383.906 280.172C382.531 282.609 380.719 284.922 378.469 287.109C376.25 289.297 373.422 291.016 369.984 292.266C366.578 293.516 362.719 294.141 358.406 294.141H336.141C350.797 272.484 365.594 251.172 380.531 230.203C380.531 229.172 380.016 228.469 378.984 228.094C367.078 228.406 353.094 228.406 337.031 228.094C334.781 235.125 331.188 241.234 326.25 246.422C326.656 247.109 327.297 247.453 328.172 247.453C333.609 242.391 337.781 237.562 340.688 232.969C341.562 232.906 345.422 232.609 352.266 232.078C359.141 231.516 364.938 231.203 369.656 231.141C355.312 252.453 340.469 273.891 325.125 295.453C325.125 296.234 325.344 296.844 325.781 297.281C329.188 297.094 341.828 297 363.703 297Z" fill="white"/>
</svg>
