<svg width="1818" height="1467" viewBox="0 0 1818 1467" fill="none" xmlns="http://www.w3.org/2000/svg">
<path d="M12.8125 667C4.47917 667 0.312502 662.833 0.312502 654.5V191C0.312502 185.667 1.97917 180.667 5.3125 176L123.313 7.99996C126.979 2.99997 132.313 0.499968 139.313 0.499968H318.313C325.646 0.499968 330.979 2.99997 334.313 7.99996L453.313 176C456.646 180.667 458.313 185.667 458.313 191V654.5C458.313 662.833 454.146 667 445.813 667H262.813C254.479 667 250.313 662.833 250.313 654.5V467H208.313V654.5C208.313 662.833 204.146 667 195.813 667H12.8125ZM229.312 293.5C243.646 293.5 255.313 289 264.313 280C273.313 271 277.813 259.5 277.813 245.5C277.813 231.167 273.313 219.5 264.313 210.5C255.313 201.5 243.646 197 229.312 197C214.979 197 203.313 201.5 194.313 210.5C185.313 219.5 180.813 231.167 180.813 245.5C180.813 259.5 185.313 271 194.313 280C203.313 289 214.979 293.5 229.312 293.5ZM512.813 667C504.479 667 500.313 662.833 500.313 654.5V13C500.313 4.66663 504.479 0.499968 512.813 0.499968H695.813C704.146 0.499968 708.313 4.66663 708.313 13V467H792.813C801.146 467 805.313 471.167 805.313 479.5V654.5C805.313 662.833 801.146 667 792.813 667H512.813ZM859.492 667C851.159 667 846.992 662.833 846.992 654.5V191C846.992 185.667 848.659 180.667 851.992 176L969.992 7.99996C973.659 2.99997 978.992 0.499968 985.992 0.499968H1164.99C1172.33 0.499968 1177.66 2.99997 1180.99 7.99996L1299.99 176C1303.33 180.667 1304.99 185.667 1304.99 191V654.5C1304.99 662.833 1300.83 667 1292.49 667H1109.49C1101.16 667 1096.99 662.833 1096.99 654.5V467H1054.99V654.5C1054.99 662.833 1050.83 667 1042.49 667H859.492ZM1075.99 293.5C1090.33 293.5 1101.99 289 1110.99 280C1119.99 271 1124.49 259.5 1124.49 245.5C1124.49 231.167 1119.99 219.5 1110.99 210.5C1101.99 201.5 1090.33 197 1075.99 197C1061.66 197 1049.99 201.5 1040.99 210.5C1031.99 219.5 1027.49 231.167 1027.49 245.5C1027.49 259.5 1031.99 271 1040.99 280C1049.99 289 1061.66 293.5 1075.99 293.5ZM1359.49 667C1351.16 667 1346.99 662.833 1346.99 654.5V13C1346.99 4.66663 1351.16 0.499968 1359.49 0.499968H1664.99C1673.66 0.499968 1680.33 2.66664 1684.99 6.99997L1799.99 121C1803.66 124.333 1805.99 127.167 1806.99 129.5C1807.99 131.833 1808.49 135.667 1808.49 141V278C1808.49 282.333 1805.66 287.333 1799.99 293L1730.99 362L1719.99 372L1750.99 418.5L1813.49 538.5C1815.16 541.5 1816.16 544.5 1816.49 547.5C1817.16 550.167 1817.49 553.667 1817.49 558V654.5C1817.49 662.833 1813.33 667 1804.99 667H1646.99C1639.66 667 1634.66 663.667 1631.99 657L1563.49 481H1554.99V654.5C1554.99 662.833 1550.83 667 1542.49 667H1359.49ZM1577.49 272C1591.16 272 1602.16 267.667 1610.49 259C1619.16 250.333 1623.49 239.333 1623.49 226C1623.49 212.667 1619.16 201.833 1610.49 193.5C1602.16 184.833 1591.16 180.5 1577.49 180.5C1564.16 180.5 1553.16 184.833 1544.49 193.5C1536.16 201.833 1531.99 212.667 1531.99 226C1531.99 239.333 1536.16 250.333 1544.49 259C1553.16 267.667 1564.16 272 1577.49 272ZM712.98 1467C704.314 1467 697.647 1464.83 692.98 1460.5L637.48 1404.5L542.98 1310.5C539.314 1306.83 536.98 1304 535.98 1302C535.314 1299.67 534.98 1295.83 534.98 1290.5V977C534.98 971.333 535.314 967.5 535.98 965.5C536.98 963.5 539.314 960.667 542.98 957L617.98 881L692.98 807C695.98 804 698.98 802.167 701.98 801.5C704.98 800.833 708.647 800.5 712.98 800.5H852.98C861.314 800.5 865.48 804.667 865.48 813V951C865.48 954 865.147 956.833 864.48 959.5C864.147 961.833 862.647 964.333 859.98 967L793.98 1032L741.48 1085.5V1190.5L800.48 1250.5L859.98 1308.5C862.647 1310.83 864.147 1313.33 864.48 1316C865.147 1318.67 865.48 1321.5 865.48 1324.5V1454.5C865.48 1462.83 861.314 1467 852.98 1467H712.98ZM982.051 1467C975.051 1467 970.051 1464.17 967.051 1458.5L904.551 1353C900.884 1347 900.217 1341.17 902.551 1335.5L1056.05 974.5L1041.05 1046V963L1078.55 1000.5H922.051C913.717 1000.5 909.551 996.333 909.551 988V813C909.551 804.667 913.717 800.5 922.051 800.5H1198.55C1205.22 800.5 1210.22 803 1213.55 808L1285.05 908.5C1289.38 913.5 1290.05 919.333 1287.05 926L1131.05 1291L1146.05 1219.5V1304.5L1108.55 1267H1268.55C1276.88 1267 1281.05 1271.17 1281.05 1279.5V1454.5C1281.05 1462.83 1276.88 1467 1268.55 1467H982.051Z" fill="white"/>
</svg>
